<?xml version="1.0" encoding="UTF-8" standalone="no"?>
<!DOCTYPE svg PUBLIC "-//W3C//DTD SVG 1.1//EN"
 "http://www.w3.org/Graphics/SVG/1.1/DTD/svg11.dtd">
<!-- Generated by graphviz version 2.47.0 (20210316.0004)
 -->
<!-- Title: dependencies Pages: 1 -->
<svg width="778pt" height="211pt"
 viewBox="0.00 0.00 778.00 211.00" xmlns="http://www.w3.org/2000/svg" xmlns:xlink="http://www.w3.org/1999/xlink">
<g id="graph0" class="graph" transform="scale(1 1) rotate(0) translate(4 207)">
<title>dependencies</title>
<polygon fill="white" stroke="transparent" points="-4,4 -4,-207 774,-207 774,4 -4,4"/>
<text text-anchor="start" x="364.01" y="-42.4" font-family="Times-12" font-weight="bold" font-size="14.00">Legend</text>
<polygon fill="#ffffb3" stroke="transparent" points="151,-10 151,-30 171,-30 171,-10 151,-10"/>
<text text-anchor="start" x="174.63" y="-15.4" font-family="Times-12" font-size="14.00"> &#160;Declarations</text>
<polygon fill="#8dd3c7" stroke="transparent" points="264,-10 264,-30 284,-30 284,-10 264,-10"/>
<text text-anchor="start" x="287.73" y="-15.4" font-family="Times-12" font-size="14.00"> &#160;Module</text>
<polygon fill="#80b1d3" stroke="transparent" points="350,-10 350,-30 370,-30 370,-10 350,-10"/>
<text text-anchor="start" x="373.78" y="-15.4" font-family="Times-12" font-size="14.00"> &#160;Bootstrap</text>
<polygon fill="#fdb462" stroke="transparent" points="447,-10 447,-30 467,-30 467,-10 447,-10"/>
<text text-anchor="start" x="470.67" y="-15.4" font-family="Times-12" font-size="14.00"> &#160;Providers</text>
<polygon fill="#fb8072" stroke="transparent" points="543,-10 543,-30 563,-30 563,-10 543,-10"/>
<text text-anchor="start" x="566.73" y="-15.4" font-family="Times-12" font-size="14.00"> &#160;Exports</text>
<g id="clust1" class="cluster">
<title>cluster_Tab4PageModule</title>
<polygon fill="none" stroke="black" stroke-dasharray="1,5" points="8,-70 8,-195 762,-195 762,-70 8,-70"/>
</g>
<g id="clust2" class="cluster">
<title>cluster_Tab4PageModule_declarations</title>
<polygon fill="none" stroke="black" points="666,-78 666,-130 754,-130 754,-78 666,-78"/>
</g>
<g id="clust4" class="cluster">
<title>cluster_Tab4PageModule_imports</title>
<polygon fill="none" stroke="black" points="16,-78 16,-130 658,-130 658,-78 16,-78"/>
</g>
<!-- Tab4Page -->
<g id="node1" class="node">
<title>Tab4Page</title>
<polygon fill="#ffffb3" stroke="black" points="745.98,-122 674.02,-122 674.02,-86 745.98,-86 745.98,-122"/>
<text text-anchor="middle" x="710" y="-99.8" font-family="Times,serif" font-size="14.00">Tab4Page</text>
</g>
<!-- Tab4PageModule -->
<g id="node2" class="node">
<title>Tab4PageModule</title>
<polygon fill="#8dd3c7" stroke="black" points="475.53,-187 472.53,-191 451.53,-191 448.53,-187 360.47,-187 360.47,-151 475.53,-151 475.53,-187"/>
<text text-anchor="middle" x="418" y="-164.8" font-family="Times,serif" font-size="14.00">Tab4PageModule</text>
</g>
<!-- Tab4Page&#45;&gt;Tab4PageModule -->
<g id="edge1" class="edge">
<title>Tab4Page&#45;&gt;Tab4PageModule</title>
<path fill="none" stroke="black" d="M710,-122.28C710,-143.32 710,-175 710,-175 710,-175 485.69,-175 485.69,-175"/>
<polygon fill="black" stroke="black" points="485.69,-171.5 475.69,-175 485.69,-178.5 485.69,-171.5"/>
</g>
<!-- CommonModule -->
<g id="node3" class="node">
<title>CommonModule</title>
<polygon fill="#8dd3c7" stroke="black" points="649.67,-122 646.67,-126 625.67,-126 622.67,-122 538.33,-122 538.33,-86 649.67,-86 649.67,-122"/>
<text text-anchor="middle" x="594" y="-99.8" font-family="Times,serif" font-size="14.00">CommonModule</text>
</g>
<!-- CommonModule&#45;&gt;Tab4PageModule -->
<g id="edge2" class="edge">
<title>CommonModule&#45;&gt;Tab4PageModule</title>
<path fill="none" stroke="black" d="M594,-122.02C594,-139.37 594,-163 594,-163 594,-163 485.63,-163 485.63,-163"/>
<polygon fill="black" stroke="black" points="485.63,-159.5 475.63,-163 485.63,-166.5 485.63,-159.5"/>
</g>
<!-- FormsModule -->
<g id="node4" class="node">
<title>FormsModule</title>
<polygon fill="#8dd3c7" stroke="black" points="520.83,-122 517.83,-126 496.83,-126 493.83,-122 425.17,-122 425.17,-86 520.83,-86 520.83,-122"/>
<text text-anchor="middle" x="473" y="-99.8" font-family="Times,serif" font-size="14.00">FormsModule</text>
</g>
<!-- FormsModule&#45;&gt;Tab4PageModule -->
<g id="edge3" class="edge">
<title>FormsModule&#45;&gt;Tab4PageModule</title>
<path fill="none" stroke="black" d="M450.55,-122.11C450.55,-122.11 450.55,-140.99 450.55,-140.99"/>
<polygon fill="black" stroke="black" points="447.05,-140.99 450.55,-150.99 454.05,-140.99 447.05,-140.99"/>
</g>
<!-- IonicModule -->
<g id="node5" class="node">
<title>IonicModule</title>
<polygon fill="#8dd3c7" stroke="black" points="407.32,-122 404.32,-126 383.32,-126 380.32,-122 318.68,-122 318.68,-86 407.32,-86 407.32,-122"/>
<text text-anchor="middle" x="363" y="-99.8" font-family="Times,serif" font-size="14.00">IonicModule</text>
</g>
<!-- IonicModule&#45;&gt;Tab4PageModule -->
<g id="edge4" class="edge">
<title>IonicModule&#45;&gt;Tab4PageModule</title>
<path fill="none" stroke="black" d="M383.7,-122.11C383.7,-122.11 383.7,-140.99 383.7,-140.99"/>
<polygon fill="black" stroke="black" points="380.2,-140.99 383.7,-150.99 387.2,-140.99 380.2,-140.99"/>
</g>
<!-- Tab4PageRoutingModule -->
<g id="node6" class="node">
<title>Tab4PageRoutingModule</title>
<polygon fill="#8dd3c7" stroke="black" points="301.15,-122 298.15,-126 277.15,-126 274.15,-122 140.85,-122 140.85,-86 301.15,-86 301.15,-122"/>
<text text-anchor="middle" x="221" y="-99.8" font-family="Times,serif" font-size="14.00">Tab4PageRoutingModule</text>
</g>
<!-- Tab4PageRoutingModule&#45;&gt;Tab4PageModule -->
<g id="edge5" class="edge">
<title>Tab4PageRoutingModule&#45;&gt;Tab4PageModule</title>
<path fill="none" stroke="black" d="M221,-122.02C221,-139.37 221,-163 221,-163 221,-163 350.22,-163 350.22,-163"/>
<polygon fill="black" stroke="black" points="350.22,-166.5 360.22,-163 350.22,-159.5 350.22,-166.5"/>
</g>
<!-- SharedModule -->
<g id="node7" class="node">
<title>SharedModule</title>
<polygon fill="#8dd3c7" stroke="black" points="122.42,-122 119.42,-126 98.42,-126 95.42,-122 23.58,-122 23.58,-86 122.42,-86 122.42,-122"/>
<text text-anchor="middle" x="73" y="-99.8" font-family="Times,serif" font-size="14.00">SharedModule</text>
</g>
<!-- SharedModule&#45;&gt;Tab4PageModule -->
<g id="edge6" class="edge">
<title>SharedModule&#45;&gt;Tab4PageModule</title>
<path fill="none" stroke="black" d="M73,-122.28C73,-143.32 73,-175 73,-175 73,-175 350.25,-175 350.25,-175"/>
<polygon fill="black" stroke="black" points="350.25,-178.5 360.25,-175 350.25,-171.5 350.25,-178.5"/>
</g>
</g>
</svg>
