<?xml version="1.0" encoding="UTF-8" standalone="no"?>
<!DOCTYPE svg PUBLIC "-//W3C//DTD SVG 1.1//EN"
 "http://www.w3.org/Graphics/SVG/1.1/DTD/svg11.dtd">
<!-- Generated by graphviz version 2.47.0 (20210316.0004)
 -->
<!-- Title: dependencies Pages: 1 -->
<svg width="591pt" height="284pt"
 viewBox="0.00 0.00 591.00 284.00" xmlns="http://www.w3.org/2000/svg" xmlns:xlink="http://www.w3.org/1999/xlink">
<g id="graph0" class="graph" transform="scale(1 1) rotate(0) translate(4 280)">
<title>dependencies</title>
<polygon fill="white" stroke="transparent" points="-4,4 -4,-280 587,-280 587,4 -4,4"/>
<text text-anchor="start" x="270.51" y="-42.4" font-family="Times-12" font-weight="bold" font-size="14.00">Legend</text>
<polygon fill="#ffffb3" stroke="transparent" points="57.5,-10 57.5,-30 77.5,-30 77.5,-10 57.5,-10"/>
<text text-anchor="start" x="81.13" y="-15.4" font-family="Times-12" font-size="14.00"> &#160;Declarations</text>
<polygon fill="#8dd3c7" stroke="transparent" points="170.5,-10 170.5,-30 190.5,-30 190.5,-10 170.5,-10"/>
<text text-anchor="start" x="194.23" y="-15.4" font-family="Times-12" font-size="14.00"> &#160;Module</text>
<polygon fill="#80b1d3" stroke="transparent" points="256.5,-10 256.5,-30 276.5,-30 276.5,-10 256.5,-10"/>
<text text-anchor="start" x="280.28" y="-15.4" font-family="Times-12" font-size="14.00"> &#160;Bootstrap</text>
<polygon fill="#fdb462" stroke="transparent" points="353.5,-10 353.5,-30 373.5,-30 373.5,-10 353.5,-10"/>
<text text-anchor="start" x="377.17" y="-15.4" font-family="Times-12" font-size="14.00"> &#160;Providers</text>
<polygon fill="#fb8072" stroke="transparent" points="449.5,-10 449.5,-30 469.5,-30 469.5,-10 449.5,-10"/>
<text text-anchor="start" x="473.23" y="-15.4" font-family="Times-12" font-size="14.00"> &#160;Exports</text>
<g id="clust1" class="cluster">
<title>cluster_ExploreContainerComponentModule</title>
<polygon fill="none" stroke="black" stroke-dasharray="1,5" points="8,-70 8,-268 575,-268 575,-70 8,-70"/>
</g>
<g id="clust4" class="cluster">
<title>cluster_ExploreContainerComponentModule_imports</title>
<polygon fill="none" stroke="black" points="220,-78 220,-130 567,-130 567,-78 220,-78"/>
</g>
<g id="clust2" class="cluster">
<title>cluster_ExploreContainerComponentModule_declarations</title>
<polygon fill="none" stroke="black" points="16,-78 16,-130 212,-130 212,-78 16,-78"/>
</g>
<g id="clust5" class="cluster">
<title>cluster_ExploreContainerComponentModule_exports</title>
<polygon fill="none" stroke="black" points="227,-208 227,-260 427,-260 427,-208 227,-208"/>
</g>
<!-- ExploreContainerComponent -->
<g id="node1" class="node">
<title>ExploreContainerComponent</title>
<polygon fill="#ffffb3" stroke="black" points="204.36,-122 23.64,-122 23.64,-86 204.36,-86 204.36,-122"/>
<text text-anchor="middle" x="114" y="-99.8" font-family="Times,serif" font-size="14.00">ExploreContainerComponent</text>
</g>
<!-- ExploreContainerComponentModule -->
<g id="node2" class="node">
<title>ExploreContainerComponentModule</title>
<polygon fill="#8dd3c7" stroke="black" points="439.41,-187 436.41,-191 415.41,-191 412.41,-187 214.59,-187 214.59,-151 439.41,-151 439.41,-187"/>
<text text-anchor="middle" x="327" y="-164.8" font-family="Times,serif" font-size="14.00">ExploreContainerComponentModule</text>
</g>
<!-- ExploreContainerComponent&#45;&gt;ExploreContainerComponentModule -->
<g id="edge1" class="edge">
<title>ExploreContainerComponent&#45;&gt;ExploreContainerComponentModule</title>
<path fill="none" stroke="black" d="M204.55,-104C214.61,-104 221.32,-104 221.32,-104 221.32,-104 221.32,-140.89 221.32,-140.89"/>
<polygon fill="black" stroke="black" points="217.82,-140.89 221.32,-150.89 224.82,-140.89 217.82,-140.89"/>
</g>
<!-- ExploreContainerComponent  -->
<g id="node6" class="node">
<title>ExploreContainerComponent </title>
<polygon fill="#fb8072" stroke="black" points="419.36,-252 234.64,-252 234.64,-216 419.36,-216 419.36,-252"/>
<text text-anchor="middle" x="327" y="-229.8" font-family="Times,serif" font-size="14.00">ExploreContainerComponent </text>
</g>
<!-- ExploreContainerComponentModule&#45;&gt;ExploreContainerComponent  -->
<g id="edge5" class="edge">
<title>ExploreContainerComponentModule&#45;&gt;ExploreContainerComponent </title>
<path fill="none" stroke="black" stroke-dasharray="5,2" d="M327,-187.11C327,-187.11 327,-205.99 327,-205.99"/>
<polygon fill="black" stroke="black" points="323.5,-205.99 327,-215.99 330.5,-205.99 323.5,-205.99"/>
</g>
<!-- CommonModule -->
<g id="node3" class="node">
<title>CommonModule</title>
<polygon fill="#8dd3c7" stroke="black" points="558.67,-122 555.67,-126 534.67,-126 531.67,-122 447.33,-122 447.33,-86 558.67,-86 558.67,-122"/>
<text text-anchor="middle" x="503" y="-99.8" font-family="Times,serif" font-size="14.00">CommonModule</text>
</g>
<!-- CommonModule&#45;&gt;ExploreContainerComponentModule -->
<g id="edge2" class="edge">
<title>CommonModule&#45;&gt;ExploreContainerComponentModule</title>
<path fill="none" stroke="black" d="M447.33,-104C439.71,-104 434.43,-104 434.43,-104 434.43,-104 434.43,-140.89 434.43,-140.89"/>
<polygon fill="black" stroke="black" points="430.93,-140.89 434.43,-150.89 437.93,-140.89 430.93,-140.89"/>
</g>
<!-- FormsModule -->
<g id="node4" class="node">
<title>FormsModule</title>
<polygon fill="#8dd3c7" stroke="black" points="429.83,-122 426.83,-126 405.83,-126 402.83,-122 334.17,-122 334.17,-86 429.83,-86 429.83,-122"/>
<text text-anchor="middle" x="382" y="-99.8" font-family="Times,serif" font-size="14.00">FormsModule</text>
</g>
<!-- FormsModule&#45;&gt;ExploreContainerComponentModule -->
<g id="edge3" class="edge">
<title>FormsModule&#45;&gt;ExploreContainerComponentModule</title>
<path fill="none" stroke="black" d="M382,-122.11C382,-122.11 382,-140.99 382,-140.99"/>
<polygon fill="black" stroke="black" points="378.5,-140.99 382,-150.99 385.5,-140.99 378.5,-140.99"/>
</g>
<!-- IonicModule -->
<g id="node5" class="node">
<title>IonicModule</title>
<polygon fill="#8dd3c7" stroke="black" points="316.32,-122 313.32,-126 292.32,-126 289.32,-122 227.68,-122 227.68,-86 316.32,-86 316.32,-122"/>
<text text-anchor="middle" x="272" y="-99.8" font-family="Times,serif" font-size="14.00">IonicModule</text>
</g>
<!-- IonicModule&#45;&gt;ExploreContainerComponentModule -->
<g id="edge4" class="edge">
<title>IonicModule&#45;&gt;ExploreContainerComponentModule</title>
<path fill="none" stroke="black" d="M272,-122.11C272,-122.11 272,-140.99 272,-140.99"/>
<polygon fill="black" stroke="black" points="268.5,-140.99 272,-150.99 275.5,-140.99 268.5,-140.99"/>
</g>
</g>
</svg>
