<?xml version="1.0" encoding="UTF-8" standalone="no"?>
<!DOCTYPE svg PUBLIC "-//W3C//DTD SVG 1.1//EN"
 "http://www.w3.org/Graphics/SVG/1.1/DTD/svg11.dtd">
<!-- Generated by graphviz version 2.47.0 (20210316.0004)
 -->
<!-- Title: dependencies Pages: 1 -->
<svg width="1346pt" height="284pt"
 viewBox="0.00 0.00 1346.00 284.00" xmlns="http://www.w3.org/2000/svg" xmlns:xlink="http://www.w3.org/1999/xlink">
<g id="graph0" class="graph" transform="scale(1 1) rotate(0) translate(4 280)">
<title>dependencies</title>
<polygon fill="white" stroke="transparent" points="-4,4 -4,-280 1342,-280 1342,4 -4,4"/>
<text text-anchor="start" x="648.01" y="-42.4" font-family="Times-12" font-weight="bold" font-size="14.00">Legend</text>
<polygon fill="#ffffb3" stroke="transparent" points="435,-10 435,-30 455,-30 455,-10 435,-10"/>
<text text-anchor="start" x="458.63" y="-15.4" font-family="Times-12" font-size="14.00"> &#160;Declarations</text>
<polygon fill="#8dd3c7" stroke="transparent" points="548,-10 548,-30 568,-30 568,-10 548,-10"/>
<text text-anchor="start" x="571.73" y="-15.4" font-family="Times-12" font-size="14.00"> &#160;Module</text>
<polygon fill="#80b1d3" stroke="transparent" points="634,-10 634,-30 654,-30 654,-10 634,-10"/>
<text text-anchor="start" x="657.78" y="-15.4" font-family="Times-12" font-size="14.00"> &#160;Bootstrap</text>
<polygon fill="#fdb462" stroke="transparent" points="731,-10 731,-30 751,-30 751,-10 731,-10"/>
<text text-anchor="start" x="754.67" y="-15.4" font-family="Times-12" font-size="14.00"> &#160;Providers</text>
<polygon fill="#fb8072" stroke="transparent" points="827,-10 827,-30 847,-30 847,-10 827,-10"/>
<text text-anchor="start" x="850.73" y="-15.4" font-family="Times-12" font-size="14.00"> &#160;Exports</text>
<g id="clust1" class="cluster">
<title>cluster_SharedModule</title>
<polygon fill="none" stroke="black" stroke-dasharray="1,5" points="8,-70 8,-268 1330,-268 1330,-70 8,-70"/>
</g>
<g id="clust2" class="cluster">
<title>cluster_SharedModule_declarations</title>
<polygon fill="none" stroke="black" points="486,-78 486,-130 1322,-130 1322,-78 486,-78"/>
</g>
<g id="clust9" class="cluster">
<title>cluster_SharedModule_exports</title>
<polygon fill="none" stroke="black" points="138,-208 138,-260 991,-260 991,-208 138,-208"/>
</g>
<g id="clust8" class="cluster">
<title>cluster_SharedModule_imports</title>
<polygon fill="none" stroke="black" points="16,-78 16,-130 478,-130 478,-78 16,-78"/>
</g>
<!-- AddEventComponent -->
<g id="node1" class="node">
<title>AddEventComponent</title>
<polygon fill="#ffffb3" stroke="black" points="1314.1,-122 1175.9,-122 1175.9,-86 1314.1,-86 1314.1,-122"/>
<text text-anchor="middle" x="1245" y="-99.8" font-family="Times,serif" font-size="14.00">AddEventComponent</text>
</g>
<!-- SharedModule -->
<g id="node6" class="node">
<title>SharedModule</title>
<polygon fill="#8dd3c7" stroke="black" points="640.42,-187 637.42,-191 616.42,-191 613.42,-187 541.58,-187 541.58,-151 640.42,-151 640.42,-187"/>
<text text-anchor="middle" x="591" y="-164.8" font-family="Times,serif" font-size="14.00">SharedModule</text>
</g>
<!-- AddEventComponent&#45;&gt;SharedModule -->
<g id="edge1" class="edge">
<title>AddEventComponent&#45;&gt;SharedModule</title>
<path fill="none" stroke="black" d="M1245,-122.22C1245,-142.37 1245,-172 1245,-172 1245,-172 650.42,-172 650.42,-172"/>
<polygon fill="black" stroke="black" points="650.42,-168.5 640.42,-172 650.42,-175.5 650.42,-168.5"/>
</g>
<!-- EditEventComponent -->
<g id="node2" class="node">
<title>EditEventComponent</title>
<polygon fill="#ffffb3" stroke="black" points="1157.82,-122 1020.18,-122 1020.18,-86 1157.82,-86 1157.82,-122"/>
<text text-anchor="middle" x="1089" y="-99.8" font-family="Times,serif" font-size="14.00">EditEventComponent</text>
</g>
<!-- EditEventComponent&#45;&gt;SharedModule -->
<g id="edge2" class="edge">
<title>EditEventComponent&#45;&gt;SharedModule</title>
<path fill="none" stroke="black" d="M1089,-122.22C1089,-140.83 1089,-167 1089,-167 1089,-167 650.57,-167 650.57,-167"/>
<polygon fill="black" stroke="black" points="650.57,-163.5 640.57,-167 650.57,-170.5 650.57,-163.5"/>
</g>
<!-- EditProfileComponent -->
<g id="node3" class="node">
<title>EditProfileComponent</title>
<polygon fill="#ffffb3" stroke="black" points="1002.27,-122 859.73,-122 859.73,-86 1002.27,-86 1002.27,-122"/>
<text text-anchor="middle" x="931" y="-99.8" font-family="Times,serif" font-size="14.00">EditProfileComponent</text>
</g>
<!-- EditProfileComponent&#45;&gt;SharedModule -->
<g id="edge3" class="edge">
<title>EditProfileComponent&#45;&gt;SharedModule</title>
<path fill="none" stroke="black" d="M921.21,-122.03C921.21,-139.06 921.21,-162 921.21,-162 921.21,-162 650.44,-162 650.44,-162"/>
<polygon fill="black" stroke="black" points="650.44,-158.5 640.44,-162 650.44,-165.5 650.44,-158.5"/>
</g>
<!-- PasswordComponent -->
<g id="node4" class="node">
<title>PasswordComponent</title>
<polygon fill="#ffffb3" stroke="black" points="841.49,-122 706.51,-122 706.51,-86 841.49,-86 841.49,-122"/>
<text text-anchor="middle" x="774" y="-99.8" font-family="Times,serif" font-size="14.00">PasswordComponent</text>
</g>
<!-- PasswordComponent&#45;&gt;SharedModule -->
<g id="edge4" class="edge">
<title>PasswordComponent&#45;&gt;SharedModule</title>
<path fill="none" stroke="black" d="M764.96,-122.24C764.96,-137.57 764.96,-157 764.96,-157 764.96,-157 650.38,-157 650.38,-157"/>
<polygon fill="black" stroke="black" points="650.38,-153.5 640.38,-157 650.38,-160.5 650.38,-153.5"/>
</g>
<!-- ShowHidePasswordComponent -->
<g id="node5" class="node">
<title>ShowHidePasswordComponent</title>
<polygon fill="#ffffb3" stroke="black" points="688.09,-122 493.91,-122 493.91,-86 688.09,-86 688.09,-122"/>
<text text-anchor="middle" x="591" y="-99.8" font-family="Times,serif" font-size="14.00">ShowHidePasswordComponent</text>
</g>
<!-- ShowHidePasswordComponent&#45;&gt;SharedModule -->
<g id="edge5" class="edge">
<title>ShowHidePasswordComponent&#45;&gt;SharedModule</title>
<path fill="none" stroke="black" d="M591,-122.11C591,-122.11 591,-140.99 591,-140.99"/>
<polygon fill="black" stroke="black" points="587.5,-140.99 591,-150.99 594.5,-140.99 587.5,-140.99"/>
</g>
<!-- AddEventComponent  -->
<g id="node11" class="node">
<title>AddEventComponent </title>
<polygon fill="#fb8072" stroke="black" points="982.6,-252 841.4,-252 841.4,-216 982.6,-216 982.6,-252"/>
<text text-anchor="middle" x="912" y="-229.8" font-family="Times,serif" font-size="14.00">AddEventComponent </text>
</g>
<!-- SharedModule&#45;&gt;AddEventComponent  -->
<g id="edge10" class="edge">
<title>SharedModule&#45;&gt;AddEventComponent </title>
<path fill="none" stroke="black" stroke-dasharray="5,2" d="M640.43,-177C715.74,-177 850.56,-177 850.56,-177 850.56,-177 850.56,-205.96 850.56,-205.96"/>
<polygon fill="black" stroke="black" points="847.06,-205.96 850.56,-215.96 854.06,-205.96 847.06,-205.96"/>
</g>
<!-- EditEventComponent  -->
<g id="node12" class="node">
<title>EditEventComponent </title>
<polygon fill="#fb8072" stroke="black" points="823.32,-252 682.68,-252 682.68,-216 823.32,-216 823.32,-252"/>
<text text-anchor="middle" x="753" y="-229.8" font-family="Times,serif" font-size="14.00">EditEventComponent </text>
</g>
<!-- SharedModule&#45;&gt;EditEventComponent  -->
<g id="edge11" class="edge">
<title>SharedModule&#45;&gt;EditEventComponent </title>
<path fill="none" stroke="black" stroke-dasharray="5,2" d="M640.4,-182C668.16,-182 697.28,-182 697.28,-182 697.28,-182 697.28,-205.81 697.28,-205.81"/>
<polygon fill="black" stroke="black" points="693.78,-205.81 697.28,-215.81 700.78,-205.81 693.78,-205.81"/>
</g>
<!-- EditProfileComponent  -->
<g id="node13" class="node">
<title>EditProfileComponent </title>
<polygon fill="#fb8072" stroke="black" points="664.27,-252 517.73,-252 517.73,-216 664.27,-216 664.27,-252"/>
<text text-anchor="middle" x="591" y="-229.8" font-family="Times,serif" font-size="14.00">EditProfileComponent </text>
</g>
<!-- SharedModule&#45;&gt;EditProfileComponent  -->
<g id="edge12" class="edge">
<title>SharedModule&#45;&gt;EditProfileComponent </title>
<path fill="none" stroke="black" stroke-dasharray="5,2" d="M591,-187.11C591,-187.11 591,-205.99 591,-205.99"/>
<polygon fill="black" stroke="black" points="587.5,-205.99 591,-215.99 594.5,-205.99 587.5,-205.99"/>
</g>
<!-- PasswordComponent  -->
<g id="node14" class="node">
<title>PasswordComponent </title>
<polygon fill="#fb8072" stroke="black" points="500.49,-252 361.51,-252 361.51,-216 500.49,-216 500.49,-252"/>
<text text-anchor="middle" x="431" y="-229.8" font-family="Times,serif" font-size="14.00">PasswordComponent </text>
</g>
<!-- SharedModule&#45;&gt;PasswordComponent  -->
<g id="edge13" class="edge">
<title>SharedModule&#45;&gt;PasswordComponent </title>
<path fill="none" stroke="black" stroke-dasharray="5,2" d="M541.63,-182C512.8,-182 482.06,-182 482.06,-182 482.06,-182 482.06,-205.81 482.06,-205.81"/>
<polygon fill="black" stroke="black" points="478.56,-205.81 482.06,-215.81 485.56,-205.81 478.56,-205.81"/>
</g>
<!-- ShowHidePasswordComponent  -->
<g id="node15" class="node">
<title>ShowHidePasswordComponent </title>
<polygon fill="#fb8072" stroke="black" points="343.59,-252 146.41,-252 146.41,-216 343.59,-216 343.59,-252"/>
<text text-anchor="middle" x="245" y="-229.8" font-family="Times,serif" font-size="14.00">ShowHidePasswordComponent </text>
</g>
<!-- SharedModule&#45;&gt;ShowHidePasswordComponent  -->
<g id="edge14" class="edge">
<title>SharedModule&#45;&gt;ShowHidePasswordComponent </title>
<path fill="none" stroke="black" stroke-dasharray="5,2" d="M541.62,-177C458.12,-177 297.98,-177 297.98,-177 297.98,-177 297.98,-205.96 297.98,-205.96"/>
<polygon fill="black" stroke="black" points="294.48,-205.96 297.98,-215.96 301.48,-205.96 294.48,-205.96"/>
</g>
<!-- IonicModule -->
<g id="node7" class="node">
<title>IonicModule</title>
<polygon fill="#8dd3c7" stroke="black" points="470.32,-122 467.32,-126 446.32,-126 443.32,-122 381.68,-122 381.68,-86 470.32,-86 470.32,-122"/>
<text text-anchor="middle" x="426" y="-99.8" font-family="Times,serif" font-size="14.00">IonicModule</text>
</g>
<!-- IonicModule&#45;&gt;SharedModule -->
<g id="edge6" class="edge">
<title>IonicModule&#45;&gt;SharedModule</title>
<path fill="none" stroke="black" d="M426,-122.24C426,-137.57 426,-157 426,-157 426,-157 531.49,-157 531.49,-157"/>
<polygon fill="black" stroke="black" points="531.49,-160.5 541.49,-157 531.49,-153.5 531.49,-160.5"/>
</g>
<!-- CommonModule -->
<g id="node8" class="node">
<title>CommonModule</title>
<polygon fill="#8dd3c7" stroke="black" points="363.67,-122 360.67,-126 339.67,-126 336.67,-122 252.33,-122 252.33,-86 363.67,-86 363.67,-122"/>
<text text-anchor="middle" x="308" y="-99.8" font-family="Times,serif" font-size="14.00">CommonModule</text>
</g>
<!-- CommonModule&#45;&gt;SharedModule -->
<g id="edge7" class="edge">
<title>CommonModule&#45;&gt;SharedModule</title>
<path fill="none" stroke="black" d="M352.78,-122.03C352.78,-139.06 352.78,-162 352.78,-162 352.78,-162 531.64,-162 531.64,-162"/>
<polygon fill="black" stroke="black" points="531.64,-165.5 541.64,-162 531.64,-158.5 531.64,-165.5"/>
</g>
<!-- FormsModule -->
<g id="node9" class="node">
<title>FormsModule</title>
<polygon fill="#8dd3c7" stroke="black" points="234.83,-122 231.83,-126 210.83,-126 207.83,-122 139.17,-122 139.17,-86 234.83,-86 234.83,-122"/>
<text text-anchor="middle" x="187" y="-99.8" font-family="Times,serif" font-size="14.00">FormsModule</text>
</g>
<!-- FormsModule&#45;&gt;SharedModule -->
<g id="edge8" class="edge">
<title>FormsModule&#45;&gt;SharedModule</title>
<path fill="none" stroke="black" d="M190.44,-122.22C190.44,-140.83 190.44,-167 190.44,-167 190.44,-167 531.48,-167 531.48,-167"/>
<polygon fill="black" stroke="black" points="531.48,-170.5 541.48,-167 531.48,-163.5 531.48,-170.5"/>
</g>
<!-- RouterModule -->
<g id="node10" class="node">
<title>RouterModule</title>
<polygon fill="#8dd3c7" stroke="black" points="121.65,-122 118.65,-126 97.65,-126 94.65,-122 24.35,-122 24.35,-86 121.65,-86 121.65,-122"/>
<text text-anchor="middle" x="73" y="-99.8" font-family="Times,serif" font-size="14.00">RouterModule</text>
</g>
<!-- RouterModule&#45;&gt;SharedModule -->
<g id="edge9" class="edge">
<title>RouterModule&#45;&gt;SharedModule</title>
<path fill="none" stroke="black" d="M73,-122.22C73,-142.37 73,-172 73,-172 73,-172 531.33,-172 531.33,-172"/>
<polygon fill="black" stroke="black" points="531.33,-175.5 541.33,-172 531.33,-168.5 531.33,-175.5"/>
</g>
</g>
</svg>
