<?xml version="1.0" encoding="UTF-8" standalone="no"?>
<!DOCTYPE svg PUBLIC "-//W3C//DTD SVG 1.1//EN"
 "http://www.w3.org/Graphics/SVG/1.1/DTD/svg11.dtd">
<!-- Generated by graphviz version 2.47.0 (20210316.0004)
 -->
<!-- Title: dependencies Pages: 1 -->
<svg width="658pt" height="211pt"
 viewBox="0.00 0.00 658.00 211.00" xmlns="http://www.w3.org/2000/svg" xmlns:xlink="http://www.w3.org/1999/xlink">
<g id="graph0" class="graph" transform="scale(1 1) rotate(0) translate(4 207)">
<title>dependencies</title>
<polygon fill="white" stroke="transparent" points="-4,4 -4,-207 654,-207 654,4 -4,4"/>
<text text-anchor="start" x="304.01" y="-42.4" font-family="Times-12" font-weight="bold" font-size="14.00">Legend</text>
<polygon fill="#ffffb3" stroke="transparent" points="91,-10 91,-30 111,-30 111,-10 91,-10"/>
<text text-anchor="start" x="114.63" y="-15.4" font-family="Times-12" font-size="14.00"> &#160;Declarations</text>
<polygon fill="#8dd3c7" stroke="transparent" points="204,-10 204,-30 224,-30 224,-10 204,-10"/>
<text text-anchor="start" x="227.73" y="-15.4" font-family="Times-12" font-size="14.00"> &#160;Module</text>
<polygon fill="#80b1d3" stroke="transparent" points="290,-10 290,-30 310,-30 310,-10 290,-10"/>
<text text-anchor="start" x="313.78" y="-15.4" font-family="Times-12" font-size="14.00"> &#160;Bootstrap</text>
<polygon fill="#fdb462" stroke="transparent" points="387,-10 387,-30 407,-30 407,-10 387,-10"/>
<text text-anchor="start" x="410.67" y="-15.4" font-family="Times-12" font-size="14.00"> &#160;Providers</text>
<polygon fill="#fb8072" stroke="transparent" points="483,-10 483,-30 503,-30 503,-10 483,-10"/>
<text text-anchor="start" x="506.73" y="-15.4" font-family="Times-12" font-size="14.00"> &#160;Exports</text>
<g id="clust1" class="cluster">
<title>cluster_TabsPageModule</title>
<polygon fill="none" stroke="black" stroke-dasharray="1,5" points="8,-70 8,-195 642,-195 642,-70 8,-70"/>
</g>
<g id="clust4" class="cluster">
<title>cluster_TabsPageModule_imports</title>
<polygon fill="none" stroke="black" points="110,-78 110,-130 634,-130 634,-78 110,-78"/>
</g>
<g id="clust2" class="cluster">
<title>cluster_TabsPageModule_declarations</title>
<polygon fill="none" stroke="black" points="16,-78 16,-130 102,-130 102,-78 16,-78"/>
</g>
<!-- TabsPage -->
<g id="node1" class="node">
<title>TabsPage</title>
<polygon fill="#ffffb3" stroke="black" points="94.42,-122 23.58,-122 23.58,-86 94.42,-86 94.42,-122"/>
<text text-anchor="middle" x="59" y="-99.8" font-family="Times,serif" font-size="14.00">TabsPage</text>
</g>
<!-- TabsPageModule -->
<g id="node2" class="node">
<title>TabsPageModule</title>
<polygon fill="#8dd3c7" stroke="black" points="399.97,-187 396.97,-191 375.97,-191 372.97,-187 286.03,-187 286.03,-151 399.97,-151 399.97,-187"/>
<text text-anchor="middle" x="343" y="-164.8" font-family="Times,serif" font-size="14.00">TabsPageModule</text>
</g>
<!-- TabsPage&#45;&gt;TabsPageModule -->
<g id="edge1" class="edge">
<title>TabsPage&#45;&gt;TabsPageModule</title>
<path fill="none" stroke="black" d="M59,-122.11C59,-141.34 59,-169 59,-169 59,-169 275.87,-169 275.87,-169"/>
<polygon fill="black" stroke="black" points="275.87,-172.5 285.87,-169 275.87,-165.5 275.87,-172.5"/>
</g>
<!-- IonicModule -->
<g id="node3" class="node">
<title>IonicModule</title>
<polygon fill="#8dd3c7" stroke="black" points="626.32,-122 623.32,-126 602.32,-126 599.32,-122 537.68,-122 537.68,-86 626.32,-86 626.32,-122"/>
<text text-anchor="middle" x="582" y="-99.8" font-family="Times,serif" font-size="14.00">IonicModule</text>
</g>
<!-- IonicModule&#45;&gt;TabsPageModule -->
<g id="edge2" class="edge">
<title>IonicModule&#45;&gt;TabsPageModule</title>
<path fill="none" stroke="black" d="M582,-122.11C582,-141.34 582,-169 582,-169 582,-169 410.25,-169 410.25,-169"/>
<polygon fill="black" stroke="black" points="410.25,-165.5 400.25,-169 410.25,-172.5 410.25,-165.5"/>
</g>
<!-- CommonModule -->
<g id="node4" class="node">
<title>CommonModule</title>
<polygon fill="#8dd3c7" stroke="black" points="519.67,-122 516.67,-126 495.67,-126 492.67,-122 408.33,-122 408.33,-86 519.67,-86 519.67,-122"/>
<text text-anchor="middle" x="464" y="-99.8" font-family="Times,serif" font-size="14.00">CommonModule</text>
</g>
<!-- CommonModule&#45;&gt;TabsPageModule -->
<g id="edge3" class="edge">
<title>CommonModule&#45;&gt;TabsPageModule</title>
<path fill="none" stroke="black" d="M408.24,-104C400.61,-104 395.33,-104 395.33,-104 395.33,-104 395.33,-140.89 395.33,-140.89"/>
<polygon fill="black" stroke="black" points="391.83,-140.89 395.33,-150.89 398.83,-140.89 391.83,-140.89"/>
</g>
<!-- FormsModule -->
<g id="node5" class="node">
<title>FormsModule</title>
<polygon fill="#8dd3c7" stroke="black" points="390.83,-122 387.83,-126 366.83,-126 363.83,-122 295.17,-122 295.17,-86 390.83,-86 390.83,-122"/>
<text text-anchor="middle" x="343" y="-99.8" font-family="Times,serif" font-size="14.00">FormsModule</text>
</g>
<!-- FormsModule&#45;&gt;TabsPageModule -->
<g id="edge4" class="edge">
<title>FormsModule&#45;&gt;TabsPageModule</title>
<path fill="none" stroke="black" d="M343,-122.11C343,-122.11 343,-140.99 343,-140.99"/>
<polygon fill="black" stroke="black" points="339.5,-140.99 343,-150.99 346.5,-140.99 339.5,-140.99"/>
</g>
<!-- TabsPageRoutingModule -->
<g id="node6" class="node">
<title>TabsPageRoutingModule</title>
<polygon fill="#8dd3c7" stroke="black" points="277.59,-122 274.59,-126 253.59,-126 250.59,-122 118.41,-122 118.41,-86 277.59,-86 277.59,-122"/>
<text text-anchor="middle" x="198" y="-99.8" font-family="Times,serif" font-size="14.00">TabsPageRoutingModule</text>
</g>
<!-- TabsPageRoutingModule&#45;&gt;TabsPageModule -->
<g id="edge5" class="edge">
<title>TabsPageRoutingModule&#45;&gt;TabsPageModule</title>
<path fill="none" stroke="black" d="M277.79,-104C285.58,-104 290.67,-104 290.67,-104 290.67,-104 290.67,-140.89 290.67,-140.89"/>
<polygon fill="black" stroke="black" points="287.17,-140.89 290.67,-150.89 294.17,-140.89 287.17,-140.89"/>
</g>
</g>
</svg>
