<?xml version="1.0" encoding="utf-8"?>
<!-- Generator: Adobe Illustrator 27.1.1, SVG Export Plug-In . SVG Version: 6.00 Build 0)  -->
<svg version="1.1" id="Capa_1" xmlns="http://www.w3.org/2000/svg" xmlns:xlink="http://www.w3.org/1999/xlink" x="0px" y="0px"
	 viewBox="0 0 150 150" style="enable-background:new 0 0 150 150;" xml:space="preserve">
<style type="text/css">
	.st0{fill:#4280EF;}
	.st1{fill:#34A353;}
	.st2{fill:#F6B704;}
	.st3{fill:#E54335;}
</style>
<g>
	<path class="st0" d="M148,76.8c0-5-0.5-10.2-1.3-15.1H76.4v28.7h40.2c-1.6,9.2-7,17.4-14.9,22.5l24,18.7
		C139.9,118.5,148,99.3,148,76.8L148,76.8z"/>
	<path class="st1" d="M76.4,149.4c20.1,0,37-6.6,49.3-18l-24-18.5c-6.6,4.5-15.2,7.1-25.3,7.1c-19.5,0-35.8-13.1-41.8-30.7l-24.7,19
		C22.6,133.6,48.2,149.4,76.4,149.4z"/>
	<path class="st2" d="M34.6,89.3c-3.1-9.2-3.1-19.3,0-28.5L9.9,41.6c-10.5,21.1-10.5,45.9,0,66.8L34.6,89.3z"/>
	<path class="st3" d="M76.4,30.1C87,29.9,97.4,34,105,41.3l21.2-21.4C112.8,7.2,94.9,0.4,76.4,0.6c-28.2,0-53.8,15.9-66.5,41
		l24.7,19.1C40.6,43.1,57,30.1,76.4,30.1z"/>
</g>
</svg>
