<?xml version="1.0" encoding="UTF-8" standalone="no"?>
<!DOCTYPE svg PUBLIC "-//W3C//DTD SVG 1.1//EN"
 "http://www.w3.org/Graphics/SVG/1.1/DTD/svg11.dtd">
<!-- Generated by graphviz version 2.47.0 (20210316.0004)
 -->
<!-- Title: dependencies Pages: 1 -->
<svg width="671pt" height="211pt"
 viewBox="0.00 0.00 671.00 211.00" xmlns="http://www.w3.org/2000/svg" xmlns:xlink="http://www.w3.org/1999/xlink">
<g id="graph0" class="graph" transform="scale(1 1) rotate(0) translate(4 207)">
<title>dependencies</title>
<polygon fill="white" stroke="transparent" points="-4,4 -4,-207 667,-207 667,4 -4,4"/>
<text text-anchor="start" x="310.51" y="-42.4" font-family="Times-12" font-weight="bold" font-size="14.00">Legend</text>
<polygon fill="#ffffb3" stroke="transparent" points="97.5,-10 97.5,-30 117.5,-30 117.5,-10 97.5,-10"/>
<text text-anchor="start" x="121.13" y="-15.4" font-family="Times-12" font-size="14.00"> &#160;Declarations</text>
<polygon fill="#8dd3c7" stroke="transparent" points="210.5,-10 210.5,-30 230.5,-30 230.5,-10 210.5,-10"/>
<text text-anchor="start" x="234.23" y="-15.4" font-family="Times-12" font-size="14.00"> &#160;Module</text>
<polygon fill="#80b1d3" stroke="transparent" points="296.5,-10 296.5,-30 316.5,-30 316.5,-10 296.5,-10"/>
<text text-anchor="start" x="320.28" y="-15.4" font-family="Times-12" font-size="14.00"> &#160;Bootstrap</text>
<polygon fill="#fdb462" stroke="transparent" points="393.5,-10 393.5,-30 413.5,-30 413.5,-10 393.5,-10"/>
<text text-anchor="start" x="417.17" y="-15.4" font-family="Times-12" font-size="14.00"> &#160;Providers</text>
<polygon fill="#fb8072" stroke="transparent" points="489.5,-10 489.5,-30 509.5,-30 509.5,-10 489.5,-10"/>
<text text-anchor="start" x="513.23" y="-15.4" font-family="Times-12" font-size="14.00"> &#160;Exports</text>
<g id="clust1" class="cluster">
<title>cluster_LoginPageModule</title>
<polygon fill="none" stroke="black" stroke-dasharray="1,5" points="8,-70 8,-195 655,-195 655,-70 8,-70"/>
</g>
<g id="clust4" class="cluster">
<title>cluster_LoginPageModule_imports</title>
<polygon fill="none" stroke="black" points="116,-78 116,-130 647,-130 647,-78 116,-78"/>
</g>
<g id="clust2" class="cluster">
<title>cluster_LoginPageModule_declarations</title>
<polygon fill="none" stroke="black" points="16,-78 16,-130 108,-130 108,-78 16,-78"/>
</g>
<!-- LoginPage -->
<g id="node1" class="node">
<title>LoginPage</title>
<polygon fill="#ffffb3" stroke="black" points="100.16,-122 23.84,-122 23.84,-86 100.16,-86 100.16,-122"/>
<text text-anchor="middle" x="62" y="-99.8" font-family="Times,serif" font-size="14.00">LoginPage</text>
</g>
<!-- LoginPageModule -->
<g id="node2" class="node">
<title>LoginPageModule</title>
<polygon fill="#8dd3c7" stroke="black" points="412.2,-187 409.2,-191 388.2,-191 385.2,-187 291.8,-187 291.8,-151 412.2,-151 412.2,-187"/>
<text text-anchor="middle" x="352" y="-164.8" font-family="Times,serif" font-size="14.00">LoginPageModule</text>
</g>
<!-- LoginPage&#45;&gt;LoginPageModule -->
<g id="edge1" class="edge">
<title>LoginPage&#45;&gt;LoginPageModule</title>
<path fill="none" stroke="black" d="M62,-122.11C62,-141.34 62,-169 62,-169 62,-169 281.56,-169 281.56,-169"/>
<polygon fill="black" stroke="black" points="281.56,-172.5 291.56,-169 281.56,-165.5 281.56,-172.5"/>
</g>
<!-- CommonModule -->
<g id="node3" class="node">
<title>CommonModule</title>
<polygon fill="#8dd3c7" stroke="black" points="638.67,-122 635.67,-126 614.67,-126 611.67,-122 527.33,-122 527.33,-86 638.67,-86 638.67,-122"/>
<text text-anchor="middle" x="583" y="-99.8" font-family="Times,serif" font-size="14.00">CommonModule</text>
</g>
<!-- CommonModule&#45;&gt;LoginPageModule -->
<g id="edge2" class="edge">
<title>CommonModule&#45;&gt;LoginPageModule</title>
<path fill="none" stroke="black" d="M583,-122.11C583,-141.34 583,-169 583,-169 583,-169 422.39,-169 422.39,-169"/>
<polygon fill="black" stroke="black" points="422.39,-165.5 412.39,-169 422.39,-172.5 422.39,-165.5"/>
</g>
<!-- FormsModule -->
<g id="node4" class="node">
<title>FormsModule</title>
<polygon fill="#8dd3c7" stroke="black" points="509.83,-122 506.83,-126 485.83,-126 482.83,-122 414.17,-122 414.17,-86 509.83,-86 509.83,-122"/>
<text text-anchor="middle" x="462" y="-99.8" font-family="Times,serif" font-size="14.00">FormsModule</text>
</g>
<!-- FormsModule&#45;&gt;LoginPageModule -->
<g id="edge3" class="edge">
<title>FormsModule&#45;&gt;LoginPageModule</title>
<path fill="none" stroke="black" d="M414.21,-104C408.21,-104 404.13,-104 404.13,-104 404.13,-104 404.13,-140.89 404.13,-140.89"/>
<polygon fill="black" stroke="black" points="400.63,-140.89 404.13,-150.89 407.63,-140.89 400.63,-140.89"/>
</g>
<!-- IonicModule -->
<g id="node5" class="node">
<title>IonicModule</title>
<polygon fill="#8dd3c7" stroke="black" points="396.32,-122 393.32,-126 372.32,-126 369.32,-122 307.68,-122 307.68,-86 396.32,-86 396.32,-122"/>
<text text-anchor="middle" x="352" y="-99.8" font-family="Times,serif" font-size="14.00">IonicModule</text>
</g>
<!-- IonicModule&#45;&gt;LoginPageModule -->
<g id="edge4" class="edge">
<title>IonicModule&#45;&gt;LoginPageModule</title>
<path fill="none" stroke="black" d="M352,-122.11C352,-122.11 352,-140.99 352,-140.99"/>
<polygon fill="black" stroke="black" points="348.5,-140.99 352,-150.99 355.5,-140.99 348.5,-140.99"/>
</g>
<!-- LoginPageRoutingModule -->
<g id="node6" class="node">
<title>LoginPageRoutingModule</title>
<polygon fill="#8dd3c7" stroke="black" points="289.82,-122 286.82,-126 265.82,-126 262.82,-122 124.18,-122 124.18,-86 289.82,-86 289.82,-122"/>
<text text-anchor="middle" x="207" y="-99.8" font-family="Times,serif" font-size="14.00">LoginPageRoutingModule</text>
</g>
<!-- LoginPageRoutingModule&#45;&gt;LoginPageModule -->
<g id="edge5" class="edge">
<title>LoginPageRoutingModule&#45;&gt;LoginPageModule</title>
<path fill="none" stroke="black" d="M289.93,-104C296.04,-104 299.87,-104 299.87,-104 299.87,-104 299.87,-140.89 299.87,-140.89"/>
<polygon fill="black" stroke="black" points="296.37,-140.89 299.87,-150.89 303.37,-140.89 296.37,-140.89"/>
</g>
</g>
</svg>
