<?xml version="1.0" encoding="UTF-8" standalone="no"?>
<!DOCTYPE svg PUBLIC "-//W3C//DTD SVG 1.1//EN"
 "http://www.w3.org/Graphics/SVG/1.1/DTD/svg11.dtd">
<!-- Generated by graphviz version 2.47.0 (20210316.0004)
 -->
<!-- Title: dependencies Pages: 1 -->
<svg width="743pt" height="211pt"
 viewBox="0.00 0.00 743.00 211.00" xmlns="http://www.w3.org/2000/svg" xmlns:xlink="http://www.w3.org/1999/xlink">
<g id="graph0" class="graph" transform="scale(1 1) rotate(0) translate(4 207)">
<title>dependencies</title>
<polygon fill="white" stroke="transparent" points="-4,4 -4,-207 739,-207 739,4 -4,4"/>
<text text-anchor="start" x="346.51" y="-42.4" font-family="Times-12" font-weight="bold" font-size="14.00">Legend</text>
<polygon fill="#ffffb3" stroke="transparent" points="133.5,-10 133.5,-30 153.5,-30 153.5,-10 133.5,-10"/>
<text text-anchor="start" x="157.13" y="-15.4" font-family="Times-12" font-size="14.00"> &#160;Declarations</text>
<polygon fill="#8dd3c7" stroke="transparent" points="246.5,-10 246.5,-30 266.5,-30 266.5,-10 246.5,-10"/>
<text text-anchor="start" x="270.23" y="-15.4" font-family="Times-12" font-size="14.00"> &#160;Module</text>
<polygon fill="#80b1d3" stroke="transparent" points="332.5,-10 332.5,-30 352.5,-30 352.5,-10 332.5,-10"/>
<text text-anchor="start" x="356.28" y="-15.4" font-family="Times-12" font-size="14.00"> &#160;Bootstrap</text>
<polygon fill="#fdb462" stroke="transparent" points="429.5,-10 429.5,-30 449.5,-30 449.5,-10 429.5,-10"/>
<text text-anchor="start" x="453.17" y="-15.4" font-family="Times-12" font-size="14.00"> &#160;Providers</text>
<polygon fill="#fb8072" stroke="transparent" points="525.5,-10 525.5,-30 545.5,-30 545.5,-10 525.5,-10"/>
<text text-anchor="start" x="549.23" y="-15.4" font-family="Times-12" font-size="14.00"> &#160;Exports</text>
<g id="clust1" class="cluster">
<title>cluster_IntroductionPageModule</title>
<polygon fill="none" stroke="black" stroke-dasharray="1,5" points="8,-70 8,-195 727,-195 727,-70 8,-70"/>
</g>
<g id="clust2" class="cluster">
<title>cluster_IntroductionPageModule_declarations</title>
<polygon fill="none" stroke="black" points="591,-78 591,-130 719,-130 719,-78 591,-78"/>
</g>
<g id="clust4" class="cluster">
<title>cluster_IntroductionPageModule_imports</title>
<polygon fill="none" stroke="black" points="16,-78 16,-130 583,-130 583,-78 16,-78"/>
</g>
<!-- IntroductionPage -->
<g id="node1" class="node">
<title>IntroductionPage</title>
<polygon fill="#ffffb3" stroke="black" points="711.42,-122 598.58,-122 598.58,-86 711.42,-86 711.42,-122"/>
<text text-anchor="middle" x="655" y="-99.8" font-family="Times,serif" font-size="14.00">IntroductionPage</text>
</g>
<!-- IntroductionPageModule -->
<g id="node2" class="node">
<title>IntroductionPageModule</title>
<polygon fill="#8dd3c7" stroke="black" points="475.97,-187 472.97,-191 451.97,-191 448.97,-187 320.03,-187 320.03,-151 475.97,-151 475.97,-187"/>
<text text-anchor="middle" x="398" y="-164.8" font-family="Times,serif" font-size="14.00">IntroductionPageModule</text>
</g>
<!-- IntroductionPage&#45;&gt;IntroductionPageModule -->
<g id="edge1" class="edge">
<title>IntroductionPage&#45;&gt;IntroductionPageModule</title>
<path fill="none" stroke="black" d="M655,-122.11C655,-141.34 655,-169 655,-169 655,-169 486.16,-169 486.16,-169"/>
<polygon fill="black" stroke="black" points="486.16,-165.5 476.16,-169 486.16,-172.5 486.16,-165.5"/>
</g>
<!-- CommonModule -->
<g id="node3" class="node">
<title>CommonModule</title>
<polygon fill="#8dd3c7" stroke="black" points="574.67,-122 571.67,-126 550.67,-126 547.67,-122 463.33,-122 463.33,-86 574.67,-86 574.67,-122"/>
<text text-anchor="middle" x="519" y="-99.8" font-family="Times,serif" font-size="14.00">CommonModule</text>
</g>
<!-- CommonModule&#45;&gt;IntroductionPageModule -->
<g id="edge2" class="edge">
<title>CommonModule&#45;&gt;IntroductionPageModule</title>
<path fill="none" stroke="black" d="M469.58,-122.11C469.58,-122.11 469.58,-140.99 469.58,-140.99"/>
<polygon fill="black" stroke="black" points="466.08,-140.99 469.58,-150.99 473.08,-140.99 466.08,-140.99"/>
</g>
<!-- FormsModule -->
<g id="node4" class="node">
<title>FormsModule</title>
<polygon fill="#8dd3c7" stroke="black" points="445.83,-122 442.83,-126 421.83,-126 418.83,-122 350.17,-122 350.17,-86 445.83,-86 445.83,-122"/>
<text text-anchor="middle" x="398" y="-99.8" font-family="Times,serif" font-size="14.00">FormsModule</text>
</g>
<!-- FormsModule&#45;&gt;IntroductionPageModule -->
<g id="edge3" class="edge">
<title>FormsModule&#45;&gt;IntroductionPageModule</title>
<path fill="none" stroke="black" d="M398,-122.11C398,-122.11 398,-140.99 398,-140.99"/>
<polygon fill="black" stroke="black" points="394.5,-140.99 398,-150.99 401.5,-140.99 394.5,-140.99"/>
</g>
<!-- IonicModule -->
<g id="node5" class="node">
<title>IonicModule</title>
<polygon fill="#8dd3c7" stroke="black" points="332.32,-122 329.32,-126 308.32,-126 305.32,-122 243.68,-122 243.68,-86 332.32,-86 332.32,-122"/>
<text text-anchor="middle" x="288" y="-99.8" font-family="Times,serif" font-size="14.00">IonicModule</text>
</g>
<!-- IonicModule&#45;&gt;IntroductionPageModule -->
<g id="edge4" class="edge">
<title>IonicModule&#45;&gt;IntroductionPageModule</title>
<path fill="none" stroke="black" d="M326.09,-122.11C326.09,-122.11 326.09,-140.99 326.09,-140.99"/>
<polygon fill="black" stroke="black" points="322.59,-140.99 326.09,-150.99 329.59,-140.99 322.59,-140.99"/>
</g>
<!-- IntroductionPageRoutingModule -->
<g id="node6" class="node">
<title>IntroductionPageRoutingModule</title>
<polygon fill="#8dd3c7" stroke="black" points="225.59,-122 222.59,-126 201.59,-126 198.59,-122 24.41,-122 24.41,-86 225.59,-86 225.59,-122"/>
<text text-anchor="middle" x="125" y="-99.8" font-family="Times,serif" font-size="14.00">IntroductionPageRoutingModule</text>
</g>
<!-- IntroductionPageRoutingModule&#45;&gt;IntroductionPageModule -->
<g id="edge5" class="edge">
<title>IntroductionPageRoutingModule&#45;&gt;IntroductionPageModule</title>
<path fill="none" stroke="black" d="M125,-122.11C125,-141.34 125,-169 125,-169 125,-169 309.77,-169 309.77,-169"/>
<polygon fill="black" stroke="black" points="309.77,-172.5 319.77,-169 309.77,-165.5 309.77,-172.5"/>
</g>
</g>
</svg>
