<?xml version="1.0" encoding="UTF-8" standalone="no"?>
<!DOCTYPE svg PUBLIC "-//W3C//DTD SVG 1.1//EN"
 "http://www.w3.org/Graphics/SVG/1.1/DTD/svg11.dtd">
<!-- Generated by graphviz version 2.47.0 (20210316.0004)
 -->
<!-- Title: dependencies Pages: 1 -->
<svg width="661pt" height="211pt"
 viewBox="0.00 0.00 661.00 211.00" xmlns="http://www.w3.org/2000/svg" xmlns:xlink="http://www.w3.org/1999/xlink">
<g id="graph0" class="graph" transform="scale(1 1) rotate(0) translate(4 207)">
<title>dependencies</title>
<polygon fill="white" stroke="transparent" points="-4,4 -4,-207 657,-207 657,4 -4,4"/>
<text text-anchor="start" x="305.51" y="-42.4" font-family="Times-12" font-weight="bold" font-size="14.00">Legend</text>
<polygon fill="#ffffb3" stroke="transparent" points="92.5,-10 92.5,-30 112.5,-30 112.5,-10 92.5,-10"/>
<text text-anchor="start" x="116.13" y="-15.4" font-family="Times-12" font-size="14.00"> &#160;Declarations</text>
<polygon fill="#8dd3c7" stroke="transparent" points="205.5,-10 205.5,-30 225.5,-30 225.5,-10 205.5,-10"/>
<text text-anchor="start" x="229.23" y="-15.4" font-family="Times-12" font-size="14.00"> &#160;Module</text>
<polygon fill="#80b1d3" stroke="transparent" points="291.5,-10 291.5,-30 311.5,-30 311.5,-10 291.5,-10"/>
<text text-anchor="start" x="315.28" y="-15.4" font-family="Times-12" font-size="14.00"> &#160;Bootstrap</text>
<polygon fill="#fdb462" stroke="transparent" points="388.5,-10 388.5,-30 408.5,-30 408.5,-10 388.5,-10"/>
<text text-anchor="start" x="412.17" y="-15.4" font-family="Times-12" font-size="14.00"> &#160;Providers</text>
<polygon fill="#fb8072" stroke="transparent" points="484.5,-10 484.5,-30 504.5,-30 504.5,-10 484.5,-10"/>
<text text-anchor="start" x="508.23" y="-15.4" font-family="Times-12" font-size="14.00"> &#160;Exports</text>
<g id="clust1" class="cluster">
<title>cluster_Tab2PageModule</title>
<polygon fill="none" stroke="black" stroke-dasharray="1,5" points="8,-70 8,-195 645,-195 645,-70 8,-70"/>
</g>
<g id="clust2" class="cluster">
<title>cluster_Tab2PageModule_declarations</title>
<polygon fill="none" stroke="black" points="549,-78 549,-130 637,-130 637,-78 549,-78"/>
</g>
<g id="clust4" class="cluster">
<title>cluster_Tab2PageModule_imports</title>
<polygon fill="none" stroke="black" points="16,-78 16,-130 541,-130 541,-78 16,-78"/>
</g>
<!-- Tab2Page -->
<g id="node1" class="node">
<title>Tab2Page</title>
<polygon fill="#ffffb3" stroke="black" points="628.98,-122 557.02,-122 557.02,-86 628.98,-86 628.98,-122"/>
<text text-anchor="middle" x="593" y="-99.8" font-family="Times,serif" font-size="14.00">Tab2Page</text>
</g>
<!-- Tab2PageModule -->
<g id="node2" class="node">
<title>Tab2PageModule</title>
<polygon fill="#8dd3c7" stroke="black" points="428.53,-187 425.53,-191 404.53,-191 401.53,-187 313.47,-187 313.47,-151 428.53,-151 428.53,-187"/>
<text text-anchor="middle" x="371" y="-164.8" font-family="Times,serif" font-size="14.00">Tab2PageModule</text>
</g>
<!-- Tab2Page&#45;&gt;Tab2PageModule -->
<g id="edge1" class="edge">
<title>Tab2Page&#45;&gt;Tab2PageModule</title>
<path fill="none" stroke="black" d="M593,-122.28C593,-143.32 593,-175 593,-175 593,-175 438.75,-175 438.75,-175"/>
<polygon fill="black" stroke="black" points="438.75,-171.5 428.75,-175 438.75,-178.5 438.75,-171.5"/>
</g>
<!-- IonicModule -->
<g id="node3" class="node">
<title>IonicModule</title>
<polygon fill="#8dd3c7" stroke="black" points="533.32,-122 530.32,-126 509.32,-126 506.32,-122 444.68,-122 444.68,-86 533.32,-86 533.32,-122"/>
<text text-anchor="middle" x="489" y="-99.8" font-family="Times,serif" font-size="14.00">IonicModule</text>
</g>
<!-- IonicModule&#45;&gt;Tab2PageModule -->
<g id="edge2" class="edge">
<title>IonicModule&#45;&gt;Tab2PageModule</title>
<path fill="none" stroke="black" d="M489,-122.02C489,-139.37 489,-163 489,-163 489,-163 438.62,-163 438.62,-163"/>
<polygon fill="black" stroke="black" points="438.62,-159.5 428.62,-163 438.62,-166.5 438.62,-159.5"/>
</g>
<!-- CommonModule -->
<g id="node4" class="node">
<title>CommonModule</title>
<polygon fill="#8dd3c7" stroke="black" points="426.67,-122 423.67,-126 402.67,-126 399.67,-122 315.33,-122 315.33,-86 426.67,-86 426.67,-122"/>
<text text-anchor="middle" x="371" y="-99.8" font-family="Times,serif" font-size="14.00">CommonModule</text>
</g>
<!-- CommonModule&#45;&gt;Tab2PageModule -->
<g id="edge3" class="edge">
<title>CommonModule&#45;&gt;Tab2PageModule</title>
<path fill="none" stroke="black" d="M371,-122.11C371,-122.11 371,-140.99 371,-140.99"/>
<polygon fill="black" stroke="black" points="367.5,-140.99 371,-150.99 374.5,-140.99 367.5,-140.99"/>
</g>
<!-- FormsModule -->
<g id="node5" class="node">
<title>FormsModule</title>
<polygon fill="#8dd3c7" stroke="black" points="297.83,-122 294.83,-126 273.83,-126 270.83,-122 202.17,-122 202.17,-86 297.83,-86 297.83,-122"/>
<text text-anchor="middle" x="250" y="-99.8" font-family="Times,serif" font-size="14.00">FormsModule</text>
</g>
<!-- FormsModule&#45;&gt;Tab2PageModule -->
<g id="edge4" class="edge">
<title>FormsModule&#45;&gt;Tab2PageModule</title>
<path fill="none" stroke="black" d="M250,-122.02C250,-139.37 250,-163 250,-163 250,-163 303.34,-163 303.34,-163"/>
<polygon fill="black" stroke="black" points="303.34,-166.5 313.34,-163 303.33,-159.5 303.34,-166.5"/>
</g>
<!-- Tab2PageRoutingModule -->
<g id="node6" class="node">
<title>Tab2PageRoutingModule</title>
<polygon fill="#8dd3c7" stroke="black" points="184.15,-122 181.15,-126 160.15,-126 157.15,-122 23.85,-122 23.85,-86 184.15,-86 184.15,-122"/>
<text text-anchor="middle" x="104" y="-99.8" font-family="Times,serif" font-size="14.00">Tab2PageRoutingModule</text>
</g>
<!-- Tab2PageRoutingModule&#45;&gt;Tab2PageModule -->
<g id="edge5" class="edge">
<title>Tab2PageRoutingModule&#45;&gt;Tab2PageModule</title>
<path fill="none" stroke="black" d="M104,-122.28C104,-143.32 104,-175 104,-175 104,-175 303.39,-175 303.39,-175"/>
<polygon fill="black" stroke="black" points="303.39,-178.5 313.39,-175 303.39,-171.5 303.39,-178.5"/>
</g>
</g>
</svg>
