<?xml version="1.0" encoding="UTF-8" standalone="no"?>
<!DOCTYPE svg PUBLIC "-//W3C//DTD SVG 1.1//EN"
 "http://www.w3.org/Graphics/SVG/1.1/DTD/svg11.dtd">
<!-- Generated by graphviz version 2.47.0 (20210316.0004)
 -->
<!-- Title: dependencies Pages: 1 -->
<svg width="657pt" height="211pt"
 viewBox="0.00 0.00 657.00 211.00" xmlns="http://www.w3.org/2000/svg" xmlns:xlink="http://www.w3.org/1999/xlink">
<g id="graph0" class="graph" transform="scale(1 1) rotate(0) translate(4 207)">
<title>dependencies</title>
<polygon fill="white" stroke="transparent" points="-4,4 -4,-207 653,-207 653,4 -4,4"/>
<text text-anchor="start" x="303.51" y="-42.4" font-family="Times-12" font-weight="bold" font-size="14.00">Legend</text>
<polygon fill="#ffffb3" stroke="transparent" points="90.5,-10 90.5,-30 110.5,-30 110.5,-10 90.5,-10"/>
<text text-anchor="start" x="114.13" y="-15.4" font-family="Times-12" font-size="14.00"> &#160;Declarations</text>
<polygon fill="#8dd3c7" stroke="transparent" points="203.5,-10 203.5,-30 223.5,-30 223.5,-10 203.5,-10"/>
<text text-anchor="start" x="227.23" y="-15.4" font-family="Times-12" font-size="14.00"> &#160;Module</text>
<polygon fill="#80b1d3" stroke="transparent" points="289.5,-10 289.5,-30 309.5,-30 309.5,-10 289.5,-10"/>
<text text-anchor="start" x="313.28" y="-15.4" font-family="Times-12" font-size="14.00"> &#160;Bootstrap</text>
<polygon fill="#fdb462" stroke="transparent" points="386.5,-10 386.5,-30 406.5,-30 406.5,-10 386.5,-10"/>
<text text-anchor="start" x="410.17" y="-15.4" font-family="Times-12" font-size="14.00"> &#160;Providers</text>
<polygon fill="#fb8072" stroke="transparent" points="482.5,-10 482.5,-30 502.5,-30 502.5,-10 482.5,-10"/>
<text text-anchor="start" x="506.23" y="-15.4" font-family="Times-12" font-size="14.00"> &#160;Exports</text>
<g id="clust1" class="cluster">
<title>cluster_ChatPageModule</title>
<polygon fill="none" stroke="black" stroke-dasharray="1,5" points="8,-70 8,-195 641,-195 641,-70 8,-70"/>
</g>
<g id="clust2" class="cluster">
<title>cluster_ChatPageModule_declarations</title>
<polygon fill="none" stroke="black" points="547,-78 547,-130 633,-130 633,-78 547,-78"/>
</g>
<g id="clust4" class="cluster">
<title>cluster_ChatPageModule_imports</title>
<polygon fill="none" stroke="black" points="16,-78 16,-130 539,-130 539,-78 16,-78"/>
</g>
<!-- ChatPage -->
<g id="node1" class="node">
<title>ChatPage</title>
<polygon fill="#ffffb3" stroke="black" points="624.65,-122 555.35,-122 555.35,-86 624.65,-86 624.65,-122"/>
<text text-anchor="middle" x="590" y="-99.8" font-family="Times,serif" font-size="14.00">ChatPage</text>
</g>
<!-- ChatPageModule -->
<g id="node2" class="node">
<title>ChatPageModule</title>
<polygon fill="#8dd3c7" stroke="black" points="410.7,-187 407.7,-191 386.7,-191 383.7,-187 297.3,-187 297.3,-151 410.7,-151 410.7,-187"/>
<text text-anchor="middle" x="354" y="-164.8" font-family="Times,serif" font-size="14.00">ChatPageModule</text>
</g>
<!-- ChatPage&#45;&gt;ChatPageModule -->
<g id="edge1" class="edge">
<title>ChatPage&#45;&gt;ChatPageModule</title>
<path fill="none" stroke="black" d="M590,-122.11C590,-141.34 590,-169 590,-169 590,-169 420.83,-169 420.83,-169"/>
<polygon fill="black" stroke="black" points="420.83,-165.5 410.83,-169 420.83,-172.5 420.83,-165.5"/>
</g>
<!-- CommonModule -->
<g id="node3" class="node">
<title>CommonModule</title>
<polygon fill="#8dd3c7" stroke="black" points="530.67,-122 527.67,-126 506.67,-126 503.67,-122 419.33,-122 419.33,-86 530.67,-86 530.67,-122"/>
<text text-anchor="middle" x="475" y="-99.8" font-family="Times,serif" font-size="14.00">CommonModule</text>
</g>
<!-- CommonModule&#45;&gt;ChatPageModule -->
<g id="edge2" class="edge">
<title>CommonModule&#45;&gt;ChatPageModule</title>
<path fill="none" stroke="black" d="M419.09,-104C411.43,-104 406.13,-104 406.13,-104 406.13,-104 406.13,-140.89 406.13,-140.89"/>
<polygon fill="black" stroke="black" points="402.63,-140.89 406.13,-150.89 409.63,-140.89 402.63,-140.89"/>
</g>
<!-- FormsModule -->
<g id="node4" class="node">
<title>FormsModule</title>
<polygon fill="#8dd3c7" stroke="black" points="401.83,-122 398.83,-126 377.83,-126 374.83,-122 306.17,-122 306.17,-86 401.83,-86 401.83,-122"/>
<text text-anchor="middle" x="354" y="-99.8" font-family="Times,serif" font-size="14.00">FormsModule</text>
</g>
<!-- FormsModule&#45;&gt;ChatPageModule -->
<g id="edge3" class="edge">
<title>FormsModule&#45;&gt;ChatPageModule</title>
<path fill="none" stroke="black" d="M354,-122.11C354,-122.11 354,-140.99 354,-140.99"/>
<polygon fill="black" stroke="black" points="350.5,-140.99 354,-150.99 357.5,-140.99 350.5,-140.99"/>
</g>
<!-- IonicModule -->
<g id="node5" class="node">
<title>IonicModule</title>
<polygon fill="#8dd3c7" stroke="black" points="288.32,-122 285.32,-126 264.32,-126 261.32,-122 199.68,-122 199.68,-86 288.32,-86 288.32,-122"/>
<text text-anchor="middle" x="244" y="-99.8" font-family="Times,serif" font-size="14.00">IonicModule</text>
</g>
<!-- IonicModule&#45;&gt;ChatPageModule -->
<g id="edge4" class="edge">
<title>IonicModule&#45;&gt;ChatPageModule</title>
<path fill="none" stroke="black" d="M288.45,-104C296.22,-104 301.87,-104 301.87,-104 301.87,-104 301.87,-140.89 301.87,-140.89"/>
<polygon fill="black" stroke="black" points="298.37,-140.89 301.87,-150.89 305.37,-140.89 298.37,-140.89"/>
</g>
<!-- ChatPageRoutingModule -->
<g id="node6" class="node">
<title>ChatPageRoutingModule</title>
<polygon fill="#8dd3c7" stroke="black" points="182.32,-122 179.32,-126 158.32,-126 155.32,-122 23.68,-122 23.68,-86 182.32,-86 182.32,-122"/>
<text text-anchor="middle" x="103" y="-99.8" font-family="Times,serif" font-size="14.00">ChatPageRoutingModule</text>
</g>
<!-- ChatPageRoutingModule&#45;&gt;ChatPageModule -->
<g id="edge5" class="edge">
<title>ChatPageRoutingModule&#45;&gt;ChatPageModule</title>
<path fill="none" stroke="black" d="M103,-122.11C103,-141.34 103,-169 103,-169 103,-169 287.36,-169 287.36,-169"/>
<polygon fill="black" stroke="black" points="287.36,-172.5 297.36,-169 287.36,-165.5 287.36,-172.5"/>
</g>
</g>
</svg>
