<?xml version="1.0" encoding="UTF-8" standalone="no"?>
<!DOCTYPE svg PUBLIC "-//W3C//DTD SVG 1.1//EN"
 "http://www.w3.org/Graphics/SVG/1.1/DTD/svg11.dtd">
<!-- Generated by graphviz version 2.47.0 (20210316.0004)
 -->
<!-- Title: dependencies Pages: 1 -->
<svg width="2207pt" height="284pt"
 viewBox="0.00 0.00 2207.00 284.00" xmlns="http://www.w3.org/2000/svg" xmlns:xlink="http://www.w3.org/1999/xlink">
<g id="graph0" class="graph" transform="scale(1 1) rotate(0) translate(4 280)">
<title>dependencies</title>
<polygon fill="white" stroke="transparent" points="-4,4 -4,-280 2203,-280 2203,4 -4,4"/>
<text text-anchor="start" x="1078.51" y="-42.4" font-family="Times-12" font-weight="bold" font-size="14.00">Legend</text>
<polygon fill="#ffffb3" stroke="transparent" points="865.5,-10 865.5,-30 885.5,-30 885.5,-10 865.5,-10"/>
<text text-anchor="start" x="889.13" y="-15.4" font-family="Times-12" font-size="14.00"> &#160;Declarations</text>
<polygon fill="#8dd3c7" stroke="transparent" points="978.5,-10 978.5,-30 998.5,-30 998.5,-10 978.5,-10"/>
<text text-anchor="start" x="1002.23" y="-15.4" font-family="Times-12" font-size="14.00"> &#160;Module</text>
<polygon fill="#80b1d3" stroke="transparent" points="1064.5,-10 1064.5,-30 1084.5,-30 1084.5,-10 1064.5,-10"/>
<text text-anchor="start" x="1088.28" y="-15.4" font-family="Times-12" font-size="14.00"> &#160;Bootstrap</text>
<polygon fill="#fdb462" stroke="transparent" points="1161.5,-10 1161.5,-30 1181.5,-30 1181.5,-10 1161.5,-10"/>
<text text-anchor="start" x="1185.17" y="-15.4" font-family="Times-12" font-size="14.00"> &#160;Providers</text>
<polygon fill="#fb8072" stroke="transparent" points="1257.5,-10 1257.5,-30 1277.5,-30 1277.5,-10 1257.5,-10"/>
<text text-anchor="start" x="1281.23" y="-15.4" font-family="Times-12" font-size="14.00"> &#160;Exports</text>
<g id="clust1" class="cluster">
<title>cluster_AppModule</title>
<polygon fill="none" stroke="black" stroke-dasharray="1,5" points="8,-70 8,-268 2191,-268 2191,-70 8,-70"/>
</g>
<g id="clust2" class="cluster">
<title>cluster_AppModule_declarations</title>
<polygon fill="none" stroke="black" points="2061,-78 2061,-130 2183,-130 2183,-78 2061,-78"/>
</g>
<g id="clust4" class="cluster">
<title>cluster_AppModule_imports</title>
<polygon fill="none" stroke="black" points="554,-78 554,-130 2053,-130 2053,-78 554,-78"/>
</g>
<g id="clust6" class="cluster">
<title>cluster_AppModule_bootstrap</title>
<polygon fill="none" stroke="black" points="1291,-208 1291,-260 1415,-260 1415,-208 1291,-208"/>
</g>
<g id="clust7" class="cluster">
<title>cluster_AppModule_providers</title>
<polygon fill="none" stroke="black" points="16,-78 16,-130 546,-130 546,-78 16,-78"/>
</g>
<!-- AppComponent -->
<g id="node1" class="node">
<title>AppComponent</title>
<polygon fill="#ffffb3" stroke="black" points="2174.94,-122 2069.06,-122 2069.06,-86 2174.94,-86 2174.94,-122"/>
<text text-anchor="middle" x="2122" y="-99.8" font-family="Times,serif" font-size="14.00">AppComponent</text>
</g>
<!-- AppModule -->
<g id="node2" class="node">
<title>AppModule</title>
<polygon fill="#8dd3c7" stroke="black" points="1394.66,-187 1391.66,-191 1370.66,-191 1367.66,-187 1311.34,-187 1311.34,-151 1394.66,-151 1394.66,-187"/>
<text text-anchor="middle" x="1353" y="-164.8" font-family="Times,serif" font-size="14.00">AppModule</text>
</g>
<!-- AppComponent&#45;&gt;AppModule -->
<g id="edge1" class="edge">
<title>AppComponent&#45;&gt;AppModule</title>
<path fill="none" stroke="black" d="M2122,-122.25C2122,-145.02 2122,-181 2122,-181 2122,-181 1404.89,-181 1404.89,-181"/>
<polygon fill="black" stroke="black" points="1404.89,-177.5 1394.89,-181 1404.89,-184.5 1404.89,-177.5"/>
</g>
<!-- AppComponent  -->
<g id="node12" class="node">
<title>AppComponent </title>
<polygon fill="#80b1d3" stroke="black" points="1407.44,-252 1298.56,-252 1298.56,-216 1407.44,-216 1407.44,-252"/>
<text text-anchor="middle" x="1353" y="-229.8" font-family="Times,serif" font-size="14.00">AppComponent </text>
</g>
<!-- AppModule&#45;&gt;AppComponent  -->
<g id="edge11" class="edge">
<title>AppModule&#45;&gt;AppComponent </title>
<path fill="none" stroke="black" stroke-dasharray="1,5" d="M1353,-187.11C1353,-187.11 1353,-205.99 1353,-205.99"/>
<polygon fill="black" stroke="black" points="1349.5,-205.99 1353,-215.99 1356.5,-205.99 1349.5,-205.99"/>
</g>
<!-- BrowserModule -->
<g id="node3" class="node">
<title>BrowserModule</title>
<polygon fill="#8dd3c7" stroke="black" points="2045.47,-122 2042.47,-126 2021.47,-126 2018.47,-122 1938.53,-122 1938.53,-86 2045.47,-86 2045.47,-122"/>
<text text-anchor="middle" x="1992" y="-99.8" font-family="Times,serif" font-size="14.00">BrowserModule</text>
</g>
<!-- BrowserModule&#45;&gt;AppModule -->
<g id="edge2" class="edge">
<title>BrowserModule&#45;&gt;AppModule</title>
<path fill="none" stroke="black" d="M1992,-122.28C1992,-143.32 1992,-175 1992,-175 1992,-175 1404.93,-175 1404.93,-175"/>
<polygon fill="black" stroke="black" points="1404.93,-171.5 1394.93,-175 1404.93,-178.5 1404.93,-171.5"/>
</g>
<!-- IonicModule.forRoot(args) -->
<g id="node4" class="node">
<title>IonicModule.forRoot(args)</title>
<polygon fill="#8dd3c7" stroke="black" points="1921.01,-122 1918.01,-126 1897.01,-126 1894.01,-122 1752.99,-122 1752.99,-86 1921.01,-86 1921.01,-122"/>
<text text-anchor="middle" x="1837" y="-99.8" font-family="Times,serif" font-size="14.00">IonicModule.forRoot(args)</text>
</g>
<!-- IonicModule.forRoot(args)&#45;&gt;AppModule -->
<g id="edge3" class="edge">
<title>IonicModule.forRoot(args)&#45;&gt;AppModule</title>
<path fill="none" stroke="black" d="M1837,-122.11C1837,-141.34 1837,-169 1837,-169 1837,-169 1404.68,-169 1404.68,-169"/>
<polygon fill="black" stroke="black" points="1404.68,-165.5 1394.68,-169 1404.68,-172.5 1404.68,-165.5"/>
</g>
<!-- AppRoutingModule -->
<g id="node5" class="node">
<title>AppRoutingModule</title>
<polygon fill="#8dd3c7" stroke="black" points="1735.27,-122 1732.27,-126 1711.27,-126 1708.27,-122 1606.73,-122 1606.73,-86 1735.27,-86 1735.27,-122"/>
<text text-anchor="middle" x="1671" y="-99.8" font-family="Times,serif" font-size="14.00">AppRoutingModule</text>
</g>
<!-- AppRoutingModule&#45;&gt;AppModule -->
<g id="edge4" class="edge">
<title>AppRoutingModule&#45;&gt;AppModule</title>
<path fill="none" stroke="black" d="M1671,-122.02C1671,-139.37 1671,-163 1671,-163 1671,-163 1404.9,-163 1404.9,-163"/>
<polygon fill="black" stroke="black" points="1404.9,-159.5 1394.9,-163 1404.9,-166.5 1404.9,-159.5"/>
</g>
<!-- SharedModule -->
<g id="node6" class="node">
<title>SharedModule</title>
<polygon fill="#8dd3c7" stroke="black" points="1588.42,-122 1585.42,-126 1564.42,-126 1561.42,-122 1489.58,-122 1489.58,-86 1588.42,-86 1588.42,-122"/>
<text text-anchor="middle" x="1539" y="-99.8" font-family="Times,serif" font-size="14.00">SharedModule</text>
</g>
<!-- SharedModule&#45;&gt;AppModule -->
<g id="edge5" class="edge">
<title>SharedModule&#45;&gt;AppModule</title>
<path fill="none" stroke="black" d="M1539,-122.24C1539,-137.57 1539,-157 1539,-157 1539,-157 1404.74,-157 1404.74,-157"/>
<polygon fill="black" stroke="black" points="1404.74,-153.5 1394.74,-157 1404.74,-160.5 1404.74,-153.5"/>
</g>
<!-- AngularFireModule.initializeApp(args) -->
<g id="node7" class="node">
<title>AngularFireModule.initializeApp(args)</title>
<polygon fill="#8dd3c7" stroke="black" points="1471.71,-122 1468.71,-126 1447.71,-126 1444.71,-122 1234.29,-122 1234.29,-86 1471.71,-86 1471.71,-122"/>
<text text-anchor="middle" x="1353" y="-99.8" font-family="Times,serif" font-size="14.00">AngularFireModule.initializeApp(args)</text>
</g>
<!-- AngularFireModule.initializeApp(args)&#45;&gt;AppModule -->
<g id="edge6" class="edge">
<title>AngularFireModule.initializeApp(args)&#45;&gt;AppModule</title>
<path fill="none" stroke="black" d="M1353,-122.11C1353,-122.11 1353,-140.99 1353,-140.99"/>
<polygon fill="black" stroke="black" points="1349.5,-140.99 1353,-150.99 1356.5,-140.99 1349.5,-140.99"/>
</g>
<!-- AngularFirestoreModule -->
<g id="node8" class="node">
<title>AngularFirestoreModule</title>
<polygon fill="#8dd3c7" stroke="black" points="1216.68,-122 1213.68,-126 1192.68,-126 1189.68,-122 1061.32,-122 1061.32,-86 1216.68,-86 1216.68,-122"/>
<text text-anchor="middle" x="1139" y="-99.8" font-family="Times,serif" font-size="14.00">AngularFirestoreModule</text>
</g>
<!-- AngularFirestoreModule&#45;&gt;AppModule -->
<g id="edge7" class="edge">
<title>AngularFirestoreModule&#45;&gt;AppModule</title>
<path fill="none" stroke="black" d="M1139,-122.24C1139,-137.57 1139,-157 1139,-157 1139,-157 1301.23,-157 1301.23,-157"/>
<polygon fill="black" stroke="black" points="1301.23,-160.5 1311.23,-157 1301.23,-153.5 1301.23,-160.5"/>
</g>
<!-- AngularFireAuthModule -->
<g id="node9" class="node">
<title>AngularFireAuthModule</title>
<polygon fill="#8dd3c7" stroke="black" points="1042.97,-122 1039.97,-126 1018.97,-126 1015.97,-122 887.03,-122 887.03,-86 1042.97,-86 1042.97,-122"/>
<text text-anchor="middle" x="965" y="-99.8" font-family="Times,serif" font-size="14.00">AngularFireAuthModule</text>
</g>
<!-- AngularFireAuthModule&#45;&gt;AppModule -->
<g id="edge8" class="edge">
<title>AngularFireAuthModule&#45;&gt;AppModule</title>
<path fill="none" stroke="black" d="M965,-122.02C965,-139.37 965,-163 965,-163 965,-163 1301.11,-163 1301.11,-163"/>
<polygon fill="black" stroke="black" points="1301.11,-166.5 1311.11,-163 1301.11,-159.5 1301.11,-166.5"/>
</g>
<!-- provideFirebaseApp.(args) -->
<g id="node10" class="node">
<title>provideFirebaseApp.(args)</title>
<polygon fill="#8dd3c7" stroke="black" points="869.44,-122 866.44,-126 845.44,-126 842.44,-122 702.56,-122 702.56,-86 869.44,-86 869.44,-122"/>
<text text-anchor="middle" x="786" y="-99.8" font-family="Times,serif" font-size="14.00">provideFirebaseApp.(args)</text>
</g>
<!-- provideFirebaseApp.(args)&#45;&gt;AppModule -->
<g id="edge9" class="edge">
<title>provideFirebaseApp.(args)&#45;&gt;AppModule</title>
<path fill="none" stroke="black" d="M786,-122.11C786,-141.34 786,-169 786,-169 786,-169 1301.31,-169 1301.31,-169"/>
<polygon fill="black" stroke="black" points="1301.31,-172.5 1311.31,-169 1301.31,-165.5 1301.31,-172.5"/>
</g>
<!-- provideAuth.(args) -->
<g id="node11" class="node">
<title>provideAuth.(args)</title>
<polygon fill="#8dd3c7" stroke="black" points="684.4,-122 681.4,-126 660.4,-126 657.4,-122 561.6,-122 561.6,-86 684.4,-86 684.4,-122"/>
<text text-anchor="middle" x="623" y="-99.8" font-family="Times,serif" font-size="14.00">provideAuth.(args)</text>
</g>
<!-- provideAuth.(args)&#45;&gt;AppModule -->
<g id="edge10" class="edge">
<title>provideAuth.(args)&#45;&gt;AppModule</title>
<path fill="none" stroke="black" d="M623,-122.28C623,-143.32 623,-175 623,-175 623,-175 1301.13,-175 1301.13,-175"/>
<polygon fill="black" stroke="black" points="1301.13,-178.5 1311.13,-175 1301.13,-171.5 1301.13,-178.5"/>
</g>
<!-- { provide: RouteReuseStrategy, useClass: IonicRouteStrategy } -->
<g id="node13" class="node">
<title>{ provide: RouteReuseStrategy, useClass: IonicRouteStrategy }</title>
<ellipse fill="#fdb462" stroke="black" cx="281" cy="-104" rx="257.27" ry="18"/>
<text text-anchor="middle" x="281" y="-99.8" font-family="Times,serif" font-size="14.00">{ provide: RouteReuseStrategy, useClass: IonicRouteStrategy }</text>
</g>
<!-- { provide: RouteReuseStrategy, useClass: IonicRouteStrategy }&#45;&gt;AppModule -->
<g id="edge12" class="edge">
<title>{ provide: RouteReuseStrategy, useClass: IonicRouteStrategy }&#45;&gt;AppModule</title>
<path fill="none" stroke="black" d="M281,-122.25C281,-145.02 281,-181 281,-181 281,-181 1301.31,-181 1301.31,-181"/>
<polygon fill="black" stroke="black" points="1301.31,-184.5 1311.31,-181 1301.31,-177.5 1301.31,-184.5"/>
</g>
</g>
</svg>
