<?xml version="1.0" encoding="UTF-8" standalone="no"?>
<!DOCTYPE svg PUBLIC "-//W3C//DTD SVG 1.1//EN"
 "http://www.w3.org/Graphics/SVG/1.1/DTD/svg11.dtd">
<!-- Generated by graphviz version 2.47.0 (20210316.0004)
 -->
<!-- Title: dependencies Pages: 1 -->
<svg width="778pt" height="211pt"
 viewBox="0.00 0.00 778.00 211.00" xmlns="http://www.w3.org/2000/svg" xmlns:xlink="http://www.w3.org/1999/xlink">
<g id="graph0" class="graph" transform="scale(1 1) rotate(0) translate(4 207)">
<title>dependencies</title>
<polygon fill="white" stroke="transparent" points="-4,4 -4,-207 774,-207 774,4 -4,4"/>
<text text-anchor="start" x="364.01" y="-42.4" font-family="Times-12" font-weight="bold" font-size="14.00">Legend</text>
<polygon fill="#ffffb3" stroke="transparent" points="151,-10 151,-30 171,-30 171,-10 151,-10"/>
<text text-anchor="start" x="174.63" y="-15.4" font-family="Times-12" font-size="14.00"> &#160;Declarations</text>
<polygon fill="#8dd3c7" stroke="transparent" points="264,-10 264,-30 284,-30 284,-10 264,-10"/>
<text text-anchor="start" x="287.73" y="-15.4" font-family="Times-12" font-size="14.00"> &#160;Module</text>
<polygon fill="#80b1d3" stroke="transparent" points="350,-10 350,-30 370,-30 370,-10 350,-10"/>
<text text-anchor="start" x="373.78" y="-15.4" font-family="Times-12" font-size="14.00"> &#160;Bootstrap</text>
<polygon fill="#fdb462" stroke="transparent" points="447,-10 447,-30 467,-30 467,-10 447,-10"/>
<text text-anchor="start" x="470.67" y="-15.4" font-family="Times-12" font-size="14.00"> &#160;Providers</text>
<polygon fill="#fb8072" stroke="transparent" points="543,-10 543,-30 563,-30 563,-10 543,-10"/>
<text text-anchor="start" x="566.73" y="-15.4" font-family="Times-12" font-size="14.00"> &#160;Exports</text>
<g id="clust1" class="cluster">
<title>cluster_Tab3PageModule</title>
<polygon fill="none" stroke="black" stroke-dasharray="1,5" points="8,-70 8,-195 762,-195 762,-70 8,-70"/>
</g>
<g id="clust2" class="cluster">
<title>cluster_Tab3PageModule_declarations</title>
<polygon fill="none" stroke="black" points="666,-78 666,-130 754,-130 754,-78 666,-78"/>
</g>
<g id="clust4" class="cluster">
<title>cluster_Tab3PageModule_imports</title>
<polygon fill="none" stroke="black" points="16,-78 16,-130 658,-130 658,-78 16,-78"/>
</g>
<!-- Tab3Page -->
<g id="node1" class="node">
<title>Tab3Page</title>
<polygon fill="#ffffb3" stroke="black" points="745.98,-122 674.02,-122 674.02,-86 745.98,-86 745.98,-122"/>
<text text-anchor="middle" x="710" y="-99.8" font-family="Times,serif" font-size="14.00">Tab3Page</text>
</g>
<!-- Tab3PageModule -->
<g id="node2" class="node">
<title>Tab3PageModule</title>
<polygon fill="#8dd3c7" stroke="black" points="484.53,-187 481.53,-191 460.53,-191 457.53,-187 369.47,-187 369.47,-151 484.53,-151 484.53,-187"/>
<text text-anchor="middle" x="427" y="-164.8" font-family="Times,serif" font-size="14.00">Tab3PageModule</text>
</g>
<!-- Tab3Page&#45;&gt;Tab3PageModule -->
<g id="edge1" class="edge">
<title>Tab3Page&#45;&gt;Tab3PageModule</title>
<path fill="none" stroke="black" d="M710,-122.28C710,-143.32 710,-175 710,-175 710,-175 494.61,-175 494.61,-175"/>
<polygon fill="black" stroke="black" points="494.61,-171.5 484.61,-175 494.61,-178.5 494.61,-171.5"/>
</g>
<!-- IonicModule -->
<g id="node3" class="node">
<title>IonicModule</title>
<polygon fill="#8dd3c7" stroke="black" points="650.32,-122 647.32,-126 626.32,-126 623.32,-122 561.68,-122 561.68,-86 650.32,-86 650.32,-122"/>
<text text-anchor="middle" x="606" y="-99.8" font-family="Times,serif" font-size="14.00">IonicModule</text>
</g>
<!-- IonicModule&#45;&gt;Tab3PageModule -->
<g id="edge2" class="edge">
<title>IonicModule&#45;&gt;Tab3PageModule</title>
<path fill="none" stroke="black" d="M606,-122.02C606,-139.37 606,-163 606,-163 606,-163 494.62,-163 494.62,-163"/>
<polygon fill="black" stroke="black" points="494.62,-159.5 484.62,-163 494.62,-166.5 494.62,-159.5"/>
</g>
<!-- CommonModule -->
<g id="node4" class="node">
<title>CommonModule</title>
<polygon fill="#8dd3c7" stroke="black" points="543.67,-122 540.67,-126 519.67,-126 516.67,-122 432.33,-122 432.33,-86 543.67,-86 543.67,-122"/>
<text text-anchor="middle" x="488" y="-99.8" font-family="Times,serif" font-size="14.00">CommonModule</text>
</g>
<!-- CommonModule&#45;&gt;Tab3PageModule -->
<g id="edge3" class="edge">
<title>CommonModule&#45;&gt;Tab3PageModule</title>
<path fill="none" stroke="black" d="M458.47,-122.11C458.47,-122.11 458.47,-140.99 458.47,-140.99"/>
<polygon fill="black" stroke="black" points="454.97,-140.99 458.47,-150.99 461.97,-140.99 454.97,-140.99"/>
</g>
<!-- FormsModule -->
<g id="node5" class="node">
<title>FormsModule</title>
<polygon fill="#8dd3c7" stroke="black" points="414.83,-122 411.83,-126 390.83,-126 387.83,-122 319.17,-122 319.17,-86 414.83,-86 414.83,-122"/>
<text text-anchor="middle" x="367" y="-99.8" font-family="Times,serif" font-size="14.00">FormsModule</text>
</g>
<!-- FormsModule&#45;&gt;Tab3PageModule -->
<g id="edge4" class="edge">
<title>FormsModule&#45;&gt;Tab3PageModule</title>
<path fill="none" stroke="black" d="M391.95,-122.11C391.95,-122.11 391.95,-140.99 391.95,-140.99"/>
<polygon fill="black" stroke="black" points="388.45,-140.99 391.95,-150.99 395.45,-140.99 388.45,-140.99"/>
</g>
<!-- Tab3PageRoutingModule -->
<g id="node6" class="node">
<title>Tab3PageRoutingModule</title>
<polygon fill="#8dd3c7" stroke="black" points="301.15,-122 298.15,-126 277.15,-126 274.15,-122 140.85,-122 140.85,-86 301.15,-86 301.15,-122"/>
<text text-anchor="middle" x="221" y="-99.8" font-family="Times,serif" font-size="14.00">Tab3PageRoutingModule</text>
</g>
<!-- Tab3PageRoutingModule&#45;&gt;Tab3PageModule -->
<g id="edge5" class="edge">
<title>Tab3PageRoutingModule&#45;&gt;Tab3PageModule</title>
<path fill="none" stroke="black" d="M221,-122.02C221,-139.37 221,-163 221,-163 221,-163 359.34,-163 359.34,-163"/>
<polygon fill="black" stroke="black" points="359.34,-166.5 369.34,-163 359.34,-159.5 359.34,-166.5"/>
</g>
<!-- SharedModule -->
<g id="node7" class="node">
<title>SharedModule</title>
<polygon fill="#8dd3c7" stroke="black" points="122.42,-122 119.42,-126 98.42,-126 95.42,-122 23.58,-122 23.58,-86 122.42,-86 122.42,-122"/>
<text text-anchor="middle" x="73" y="-99.8" font-family="Times,serif" font-size="14.00">SharedModule</text>
</g>
<!-- SharedModule&#45;&gt;Tab3PageModule -->
<g id="edge6" class="edge">
<title>SharedModule&#45;&gt;Tab3PageModule</title>
<path fill="none" stroke="black" d="M73,-122.28C73,-143.32 73,-175 73,-175 73,-175 359.34,-175 359.34,-175"/>
<polygon fill="black" stroke="black" points="359.34,-178.5 369.34,-175 359.34,-171.5 359.34,-178.5"/>
</g>
</g>
</svg>
