<?xml version="1.0" encoding="UTF-8"?>
<svg id="Layer_2" data-name="Layer 2" xmlns="http://www.w3.org/2000/svg" viewBox="0 0 226.42 163.02">
  <defs>
    <style>
      .cls-1 {
        fill: #fb867c;
      }

      .cls-2 {
        fill: #ffa990;
      }
    </style>
  </defs>
  <g id="Layer_2-2" data-name="Layer 2">
    <path class="cls-2" d="m109.38,163.02H0v-89.27c0-12.94,2.38-23.99,7.12-33.15,4.74-9.16,11.27-16.22,19.57-21.19,8.3-4.96,17.85-7.44,28.63-7.44,13.37,0,24.9,4.26,34.61,12.78,6.84,6,11.96,13.42,15.37,22.26m0,0c.88-5.21,2.9-10.72,8.4-19.67,5.5-8.95,12.4-15.74,20.7-20.38,8.3-4.63,17.74-6.95,28.3-6.95,9.49,0,18.11,1.46,25.88,4.37,7.76,2.91,14.45,7.44,20.05,13.58,5.61,6.15,9.98,13.86,13.1,23.13,3.13,9.27,4.69,20.27,4.69,32.99v88.95h-117.04"/>
    <path class="cls-1" d="m221.73,41.08c-3.12-9.27-7.49-16.98-13.1-23.13-5.61-6.15-12.29-10.67-20.05-13.58C180.81,1.46,172.19,0,162.7,0,152.13,0,142.7,2.32,134.39,6.95c-8.3,4.64-15.2,11.43-20.7,20.38-5.5,8.95-7.52,14.46-8.4,19.67l1.83,116.02h119.29v-88.95c0-12.72-1.56-23.72-4.69-32.99Z"/>
    <path d="m158.97,43.72c5.42-7.17,9.17-13.98,15.4-2.66.45.88.92,1.74,1.3,2.66l-.08.05c-8.35-12.53-7.9-8-16.61-.06h0Z"/>
    <path d="m82.98,61.56c-3.48,5.12-8.72,9.75-14.95,11.12-8.34,2.1-16.74-3.32-21.15-10.08,0,0,.14-.14.14-.14,7.95,8,17.45,11.86,27.74,5.41,2.95-1.79,5.6-4.04,8.08-6.45l.14.14h0Z"/>
    <path d="m47.85,58.76c4.54-6.68,8.2-12.51,13.56-2.38.38.79.79,1.56,1.11,2.39l-.08.05c-7.36-11.05-6.96-7.29-14.59-.06h0Z"/>
    <path d="m66.42,58.76c4.61-6.46,8.23-12.38,13.57-2.36.38.79.79,1.55,1.1,2.37l-.08.05c-7.35-11.03-6.94-6.95-14.59-.06h0Z"/>
    <path d="m177.82,46.9c-4.1,5.68-9.99,10.9-17.06,12.43-9.55,2.33-18.75-3.71-24.02-11.25,0,0,.14-.14.14-.14,9.1,9.13,19.83,13.53,31.61,6.17,3.36-2.04,6.38-4.61,9.2-7.36l.14.14h0Z"/>
    <path d="m137.83,43.72c5.35-7.42,9.14-14.12,15.39-2.68.45.89.93,1.76,1.31,2.69l-.08.05c-8.34-12.53-7.93-8.39-16.61-.06h0Z"/>
  </g>
</svg>