<?xml version="1.0" encoding="UTF-8"?>
<svg id="Layer_2" data-name="Layer 2" xmlns="http://www.w3.org/2000/svg" viewBox="0 0 500 501.99">
  <defs>
    <style>
      .cls-1 {
        fill: #a4e5ea;
      }

      .cls-2 {
        fill: #3a949b;
      }

      .cls-3 {
        fill: #fb867c;
      }

      .cls-4 {
        fill: #59b3be;
        opacity: .83;
      }

      .cls-5 {
        fill: #356277;
      }

      .cls-6 {
        fill: #ffa990;
      }
    </style>
  </defs>
  <g id="Layer_3" data-name="Layer 3">
    <path class="cls-1" d="m42.78,236.76c11.21-3.31,23.34-5.12,36-5.12,37.93,0,71.06,16.22,88.96,40.36,15.23-8.58,33.84-13.64,53.96-13.64,23.83,0,45.57,7.09,62.04,18.74,16.29-8.53,35.81-13.51,56.81-13.51,12.15,0,23.8,1.67,34.62,4.73,17.03-17.51,43.77-28.8,73.85-28.8,1.04,0,2.07.04,3.11.06,9.38-16.31,24.24-30.22,42.71-40.28C471.41,85.53,370.7,0,250,0h0C134.36,0,37.08,78.52,8.51,185.15c16.03,15.48,27.96,34.03,34.27,51.62Z"/>
    <path class="cls-1" d="m250,500h0c64.55,0,123.39-24.47,167.75-64.64H82.25c44.36,40.17,103.19,64.64,167.75,64.64Z"/>
    <path class="cls-4" d="m20.18,282.77c7.53,1.33,14.55,4.46,20.75,9.01v-4.07c0-20.27,3.28-37.93,9.82-52.99-2.7.6-5.36,1.28-7.97,2.05-6.3-17.58-18.24-36.13-34.27-51.62-1.34,5.02-2.54,10.1-3.57,15.24,11.13,16.02,17.81,36.48,17.81,58.78,0,8.15-.9,16.06-2.58,23.59Z"/>
    <path class="cls-6" d="m167.74,272c15.23-8.58,33.84-13.64,53.96-13.64,2.43,0,4.83.09,7.21.24l-.65-18.47c-6.07-15.72-15.19-28.92-27.36-39.61-17.26-15.15-37.78-22.73-61.58-22.73-19.18,0-36.16,4.41-50.93,13.24-14.76,8.83-26.37,21.39-34.82,37.69-1.01,1.95-1.95,3.95-2.84,5.99,8.91-1.99,18.31-3.07,28.03-3.07,37.93,0,71.06,16.22,88.96,40.36Z"/>
    <path class="cls-6" d="m283.75,277.09c16.29-8.53,35.81-13.51,56.81-13.51,12.15,0,23.8,1.67,34.62,4.73,15.01-15.43,37.55-26.02,63.28-28.33-.9-3.59-1.9-7.06-3.03-10.4-5.56-16.49-13.33-30.21-23.31-41.15-9.97-10.93-21.87-18.99-35.68-24.17-13.81-5.18-29.15-7.77-46.04-7.77-18.79,0-35.58,4.13-50.36,12.37-14.76,8.26-27.05,20.34-36.83,36.26-9.78,15.92-13.38,25.73-14.94,35l.65,18.47c20.99,1.27,40.03,8.04,54.83,18.5Z"/>
    <path class="cls-6" d="m40.93,291.77c15.41,11.31,25.67,31.38,25.67,54.32,0,19.92-7.73,37.71-19.85,49.47,10.4,14.5,22.3,27.85,35.5,39.8h152.89l-6.23-176.77c-2.38-.14-4.78-.24-7.21-.24-20.12,0-38.73,5.06-53.96,13.64-17.9-24.14-51.03-40.36-88.96-40.36-9.72,0-19.12,1.08-28.03,3.07-6.54,15.07-9.82,32.72-9.82,52.99v4.07Z"/>
    <path class="cls-6" d="m438.46,239.98c-25.73,2.3-48.27,12.9-63.28,28.33-10.82-3.05-22.47-4.73-34.62-4.73-21,0-40.52,4.98-56.81,13.51-14.8-10.46-33.84-17.23-54.83-18.5l6.23,176.77h182.6c9.35-8.46,18.04-17.63,26.02-27.4v-119.68c0-18.05-1.77-34.15-5.31-48.3Z"/>
    <path class="cls-2" d="m0,250c0,50.63,15.05,97.74,40.93,137.11v-95.34c-6.19-4.55-13.22-7.68-20.75-9.01,1.68-7.54,2.58-15.44,2.58-23.59,0-22.3-6.68-42.76-17.81-58.78-3.23,16.04-4.94,32.62-4.94,49.61h0Z"/>
    <path class="cls-2" d="m40.93,291.77v95.34c1.88,2.86,3.83,5.67,5.82,8.45,12.12-11.76,19.85-29.55,19.85-49.47,0-22.93-10.26-43.01-25.67-54.32Z"/>
    <path class="cls-4" d="m457.48,270.66c0-24.37,8.72-46.36,22.71-62-11.72,8.71-21.31,19.19-28.05,30.91-1.03-.03-2.06-.06-3.11-.06-3.58,0-7.1.16-10.57.48,3.54,14.15,5.31,30.24,5.31,48.3v10.35c4.95-3.04,10.37-5.17,16.11-6.17-1.56-6.96-2.4-14.27-2.4-21.8Z"/>
    <path class="cls-4" d="m443.77,407.96c.85-1.04,1.68-2.09,2.51-3.15-.85-.46-1.69-.93-2.51-1.44v4.59Z"/>
    <path class="cls-2" d="m416.64,350.96c0,22.74,11,42.48,27.13,52.41v-104.74c-16.13,9.91-27.13,29.6-27.13,52.33Z"/>
    <path class="cls-2" d="m500,250c0-17.38-1.78-34.34-5.15-50.71-5.19,2.83-10.08,5.97-14.66,9.37-13.99,15.64-22.71,37.63-22.71,62,0,7.53.84,14.84,2.4,21.8-5.74,1-11.17,3.13-16.11,6.17v104.74c.82.51,1.66.99,2.51,1.44,33.63-42.58,53.71-96.34,53.71-154.81h0Z"/>
    <path class="cls-3" d="m331.83,395.61c12.15,0,23.8,1.87,34.62,5.29,17.03-19.59,43.77-32.22,73.85-32.22,1.04,0,2.07.04,3.11.07.12-.23.24-.45.36-.67v-79.79c0-22.63-2.78-42.2-8.35-58.7-5.56-16.49-13.33-30.21-23.31-41.15-9.97-10.93-21.87-18.99-35.68-24.17-13.81-5.18-29.15-7.77-46.04-7.77-18.79,0-35.58,4.13-50.36,12.37-14.76,8.26-27.05,20.34-36.83,36.26-9.78,15.92-13.38,25.74-14.94,35l2.39,151.12c16.84,2.87,32.07,9.75,44.36,19.47,16.29-9.54,35.81-15.11,56.81-15.11Z"/>
    <path class="cls-5" d="m443.77,368.07c-.12.23-.25.45-.36.67-1.03-.03-2.06-.07-3.11-.07-30.08,0-56.82,12.63-73.85,32.22-10.82-3.41-22.47-5.29-34.62-5.29-21,0-40.52,5.57-56.81,15.11-12.3-9.73-27.52-16.61-44.36-19.47-5.72-.97-11.63-1.49-17.68-1.49-20.12,0-38.73,5.66-53.96,15.26-17.9-27-51.03-45.15-88.96-45.15-12.67,0-24.79,2.03-36,5.73-5.02-15.66-13.6-32-24.98-46.75,26.97,97.37,111.35,170.88,214.42,181.74,8.71.92,17.55,1.39,26.5,1.39h0c8.92,0,17.73-.48,26.41-1.39,49.17-5.16,94.1-24.59,130.57-54.06,13.49-10.9,25.83-23.17,36.79-36.61,21.04-25.78,37.04-55.83,46.49-88.67-20.15,11.26-36.39,27.52-46.49,46.81Z"/>
    <path d="m323.8,234.32c2.48-2.81,7.64-9.33,10.31-11.82,5.44-5.72,9.95-2.35,13.82,2.92,2.07,2.84,3.89,5.8,5.51,8.91-2.01-2.53-3.9-5.82-6.11-8.42-3.77-4.64-7.45-7.97-12.6-2.73-3.77,3.49-7.11,7.98-10.93,11.15h0Z"/>
    <path d="m188.52,265.96c-12.31,15.57-31.41,25.82-50.16,14.32-5.49-3.25-10.05-7.68-13.96-12.48l.14-.14c4.38,4.32,9.16,8.31,14.57,11.24,11.33,6.44,24.08,5.36,34.93-1.52,5.27-3.19,9.96-7.26,14.34-11.57,0,0,.14.14.14.14h0Z"/>
    <path d="m126.09,261.07c2.82-3.48,5.73-7.49,8.92-10.67,4.85-5.16,8.93-1.98,12.32,2.73,1.81,2.53,3.41,5.17,4.8,7.95,0,0-.08.05-.08.05-1.69-2.56-3.42-5.11-5.33-7.52-3.28-4.07-6.53-7.21-11.09-2.55-3.33,3.09-6.23,7.16-9.54,10h0Z"/>
    <path d="m159.13,261.07c1.67-2.05,4.13-4.98,5.85-7.04,3.18-3.72,7.33-8.8,12.25-4.33,3.5,3.16,5.77,7.28,7.94,11.38,0,0-.08.05-.08.05-1.68-2.54-3.4-5.06-5.3-7.44-3.31-4.07-6.53-6.99-11.05-2.4-3.31,3.05-6.25,7.04-9.61,9.78h0Z"/>
    <path d="m357.26,239.88c-14.23,17.48-35.62,29.09-57.01,16.15-6.25-3.66-11.46-8.64-15.98-14.04l.14-.14c4.99,4.92,10.42,9.46,16.59,12.8,12.96,7.35,27.38,6.12,39.79-1.73,6-3.63,11.34-8.27,16.33-13.18,0,0,.14.14.14.14h0Z"/>
    <path d="m286.19,234.32c1.64-2.05,4.97-6.13,6.64-8.14,2.83-3.14,6.59-8.56,11.47-6.45,2.53,1.22,4.37,3.44,5.98,5.6,2.07,2.87,3.91,5.86,5.54,8.99-2.03-2.55-3.92-5.87-6.15-8.51-3.74-4.65-7.45-8.22-12.65-2.9-3.78,3.54-7.09,8.11-10.85,11.4h0Z"/>
  </g>
</svg>